<svg width="370" height="332" xmlns="http://www.w3.org/2000/svg" xmlns:xlink="http://www.w3.org/1999/xlink" xml:space="preserve" overflow="hidden"><defs><clipPath id="clip0"><rect x="606" y="117" width="370" height="332"/></clipPath></defs><g clip-path="url(#clip0)" transform="translate(-606 -117)"><path d="M-1956.04-996.357-1804.76-996.357C-1803.3-996.37-1801.88-995.898-1800.73-995.005L-1800.6-994.887C-1800.39-994.716-1800.18-994.545-1799.98-994.348L-1713.57-907.941C-1713.45-907.823-1713.35-907.691-1713.23-907.573L-1713.23-907.586C-1712.04-906.234-1711.46-904.461-1711.63-902.675L-1711.63-705.565C-1711.65-691.646-1722.92-680.365-1736.84-680.352L-1956.12-680.352C-1970.03-680.365-1981.31-691.646-1981.33-705.565L-1981.33-971.144C-1981.31-985.051-1970.03-996.331-1956.12-996.357ZM1579.19 516.433 1730.61 516.433 1730.6 516.433C1732.03 516.446 1733.39 516.919 1734.52 517.786L1734.65 517.864 1734.67 517.864C1734.88 518.022 1735.09 518.206 1735.27 518.403L1821.68 604.81C1821.8 604.928 1821.9 605.06 1822.02 605.178L1822.03 605.178C1823.21 606.517 1823.79 608.303 1823.62 610.089L1823.62 807.199C1823.61 821.105 1812.33 832.386 1798.41 832.412L1579.18 832.412C1565.26 832.386 1553.98 821.105 1553.97 807.199L1553.97 541.62C1554 527.7 1565.26 516.433 1579.18 516.407ZM-2971.96 112.552-2971.96 37.3861C-2971.95 23.4664-2960.67 12.186-2946.75 12.1729L-2795.47 12.1729C-2794.01 12.1598-2792.59 12.6325-2791.44 13.5124-2791.38 13.5518-2791.33 13.5912-2791.28 13.6174-2791.07 13.7881-2790.89 13.9851-2790.69 14.169L-2704.28 100.576C-2704.16 100.694-2704.06 100.799-2703.94 100.944-2702.74 102.296-2702.17 104.069-2702.34 105.855L-2702.34 302.965C-2702.35 316.885-2713.62 328.152-2727.54 328.165L-2946.8 328.165C-2960.72 328.152-2971.99 316.885-2972.01 302.965L-2972.01 227.786C-2987.98 212.881-2997.03 192-2997 170.162-2997.02 148.311-2987.94 127.444-2971.96 112.552ZM-2871.63 123.832C-2883.92 111.541-2900.59 104.633-2917.97 104.633-2935.35 104.633-2952.01 111.541-2964.3 123.832-2976.59 136.123-2983.5 152.788-2983.5 170.16-2983.5 187.547-2976.59 204.212-2964.3 216.489-2952.01 228.78-2935.35 235.687-2917.97 235.687-2900.59 235.687-2883.92 228.78-2871.63 216.489-2859.35 204.197-2852.46 187.533-2852.46 170.16-2852.46 152.788-2859.35 136.123-2871.63 123.832ZM-2776.95 98.5926-2725.21 98.6057-2788.69 35.1257-2788.69 86.8396C-2788.66 93.3268-2783.41 98.5795-2776.93 98.6057ZM-2271.51 150.817-2419.18 150.817-2419.17 181.244-2415.69 177.751C-2404.68 166.812-2386.9 166.812-2375.9 177.751L-2329.29 224.355-2315.27 210.33-2315.27 210.317C-2307.44 202.53-2294.78 202.53-2286.96 210.317L-2271.49 225.786ZM-2419.18 200.259-2419.18 259.157-2364.1 259.157-2338.81 233.865-2385.4 187.261C-2391.16 181.588-2400.41 181.588-2406.18 187.261ZM-2345.08 259.157-2271.51 259.157-2271.51 244.778-2296.46 219.827C-2299.02 217.279-2303.17 217.279-2305.73 219.827L-2324.53 238.658ZM-790.735 516.435-790.722 516.422C-789.33 516.462-787.991 516.921-786.875 517.775-786.599 517.972-786.336 518.195-786.1 518.445L-699.693 604.852-699.496 605.036-699.365 605.193-699.351 605.193C-698.17 606.546-697.579 608.332-697.762 610.131L-697.762 807.214C-697.762 821.134-709.043 832.414-722.949 832.427L-942.227 832.427C-956.146 832.414-967.414 821.134-967.44 807.214L-967.44 541.635C-967.414 527.729-956.133 516.448-942.227 516.422L-790.763 516.422ZM-772.404 602.883-720.676 602.883-784.129 539.389-784.129 591.103C-784.116 597.591-778.863 602.856-772.376 602.883ZM1074.88 516.422 1226.16 516.422C1227.62 516.409 1229.04 516.882 1230.19 517.774L1230.32 517.893C1230.53 518.063 1230.74 518.234 1230.94 518.431L1317.33 604.838C1317.45 604.943 1317.57 605.062 1317.68 605.193 1318.86 606.545 1319.45 608.318 1319.29 610.104L1319.29 807.214 1319.34 807.214C1319.32 821.134 1308.04 832.414 1294.13 832.427L1074.88 832.427C1060.97 832.414 1049.69 821.134 1049.67 807.214L1049.67 541.635C1049.69 527.729 1060.97 516.448 1074.88 516.422ZM578.182 650.996 578.182 575.579C578.195 564.285 587.348 555.133 598.641 555.106L711.26 555.106C712.718 555.106 714.136 555.579 715.292 556.459 715.292 556.498 715.37 556.511 715.41 556.551 715.633 556.722 715.83 556.905 716.014 557.102L780.321 621.409C780.387 621.462 780.452 621.528 780.518 621.593 780.557 621.659 780.597 621.698 780.649 621.751 781.831 623.103 782.422 624.889 782.251 626.689L782.251 650.97 806.282 650.97C810.734 650.97 815.015 652.742 818.167 655.894 821.319 659.045 823.091 663.326 823.091 667.778L823.091 671.573C823.091 680.858 815.567 688.382 806.282 688.382L782.251 688.382 782.251 773.24C782.238 784.533 773.085 793.699 761.779 793.725L598.643 793.725C587.336 793.699 578.184 784.533 578.184 773.24L578.184 688.396 554.166 688.383C544.881 688.383 537.357 680.858 537.357 671.574L537.357 667.779C537.357 658.494 544.881 650.97 554.166 650.97ZM806.348 664.443 554.162 664.443C552.298 664.443 550.801 665.954 550.801 667.805L550.801 671.6C550.801 672.493 551.155 673.347 551.785 673.977 552.416 674.607 553.269 674.962 554.162 674.962L806.348 674.962C807.241 674.962 808.094 674.607 808.725 673.977 809.355 673.347 809.71 672.493 809.71 671.6L809.71 667.805C809.71 666.925 809.355 666.059 808.725 665.428 808.094 664.798 807.241 664.443 806.348 664.443ZM725.034 619.403 759.374 619.403 717.994 578.023 717.994 612.363 718.007 612.363C718.02 616.25 721.159 619.388 725.033 619.402ZM-2454.95 12.1685-2303.67 12.1685C-2302.22 12.1554-2300.8 12.6282-2299.64 13.508-2299.6 13.5474-2299.56 13.5737-2299.52 13.6131L-2299.48 13.6131C-2299.29 13.7838-2299.09 13.9676-2298.89 14.1646L-2212.49 100.572C-2212.37 100.69-2212.26 100.795-2212.14 100.94-2210.95 102.292-2210.37 104.065-2210.54 105.851L-2210.54 302.961C-2210.56 316.867-2221.82 328.148-2235.74 328.161L-2455.02 328.161-2455.01 328.161C-2468.93 328.147-2480.21 316.88-2480.22 302.961L-2480.22 37.3818C-2480.21 23.4621-2468.93 12.1949-2455.01 12.1687ZM-2285.16 98.6027-2233.43 98.6027-2296.91 35.1092-2296.91 86.8365C-2296.9 93.3237-2291.64 98.5764-2285.16 98.6027ZM-2320.5 170.275C-2323.8 170.288-2326.77 172.285-2328.05 175.344-2329.31 178.404-2328.62 181.923-2326.29 184.261-2323.94 186.598-2320.42 187.294-2317.37 186.02-2314.31 184.76-2312.31 181.779-2312.3 178.469-2312.3 176.303-2313.16 174.215-2314.69 172.678-2316.23 171.141-2318.32 170.275-2320.5 170.275ZM-2335.78 163.171C-2327.34 154.727-2313.64 154.727-2305.18 163.171-2301.13 167.229-2298.84 172.731-2298.84 178.47-2298.84 184.208-2301.13 189.711-2305.18 193.768-2313.64 202.225-2327.34 202.225-2335.78 193.768-2339.84 189.711-2342.12 184.208-2342.12 178.47-2342.12 172.731-2339.84 167.229-2335.78 163.171ZM-1950.69 12.1675-1799.41 12.1675C-1797.96 12.1544-1796.54 12.6272-1795.38 13.507-1795.33 13.5464-1795.29 13.5858-1795.24 13.6121-1795.03 13.7828-1794.82 13.9798-1794.62 14.1636L-1708.23 100.571-1708.24 100.584C-1708.11 100.689-1707.99 100.807-1707.87 100.938-1706.7 102.304-1706.13 104.064-1706.28 105.85L-1706.28 302.96-1706.23 302.96C-1706.26 316.879-1717.54 328.147-1731.44 328.16L-1950.72 328.16C-1964.64 328.146-1975.92 316.879-1975.93 302.96L-1975.93 37.3808C-1975.92 23.4611-1964.64 12.1939-1950.72 12.1676ZM-1780.9 98.6017-1729.17 98.6017-1792.64 35.1082-1792.64 86.8355C-1792.62 93.3227-1787.37 98.5754-1780.88 98.6017ZM-1446.44 12.1675-1295.15 12.1675C-1293.69 12.1544-1292.27 12.6272-1291.12 13.507-1291.08 13.5464-1291.04 13.5858-1290.99 13.6121-1290.78 13.7828-1290.57 13.9798-1290.37 14.1636L-1203.96 100.571C-1203.84 100.689-1203.74 100.794-1203.62 100.939-1202.43 102.291-1201.85 104.064-1202.02 105.85L-1202.02 302.96C-1202.05 316.879-1213.33 328.147-1227.23 328.16L-1446.51 328.16C-1460.42 328.147-1471.7 316.879-1471.72 302.96L-1471.72 37.3808C-1471.71 23.4611-1460.43 12.1939-1446.51 12.1676ZM-1276.62 98.6017-1224.89 98.6017-1288.37 35.1082-1288.37 86.8355C-1288.36 93.3227-1283.11 98.5754-1276.62 98.6017ZM-734.704 313.085-734.704 313.072C-736.162 313.361-737.659 313.505-739.156 313.518L-947.793 313.518C-961.214 313.492-972.074 302.619-972.088 289.198L-972.088 36.4613C-972.074 23.0536-961.201 12.1803-947.793 12.1672L-803.816 12.1672C-802.358 12.1541-800.94 12.6268-799.785 13.5067-799.745 13.5461-799.706 13.5855-799.653 13.6117-799.443 13.7824-799.233 13.9663-799.049 14.1633L-716.844 96.3683C-716.779 96.4339-716.713 96.4996-716.647 96.5784-716.608 96.6309-716.568 96.6834-716.516 96.7228-715.321 98.0754-714.743 99.8614-714.901 101.674L-714.901 279.544-698.433 295.998C-686.654 307.778-694.953 328.158-711.776 328.158-716.766 328.158-721.572 326.188-725.104 322.643ZM-786.233 94.4398-737.831 94.4398-797.122 35.1485-797.122 83.5511-797.109 83.5511C-797.096 89.539-792.237 94.3981-786.249 94.4112ZM-743.358 277.588-743.436 277.693-743.436 277.733-743.423 277.72C-745.485 279.834-745.485 283.209-743.423 285.323L-715.57 313.176-715.57 313.163C-714.034 314.738-711.71 315.224-709.674 314.384-707.652 313.543-706.326 311.547-706.352 309.354-706.339 307.923-706.903 306.544-707.915 305.52L-735.781 277.654C-736.792 276.63-738.171 276.065-739.615 276.065-741.007 276.052-742.359 276.577-743.371 277.549ZM-789.437 198.284C-807.861 198.284-822.805 213.228-822.805 231.653-822.805 240.503-819.286 249-813.035 255.25-806.771 261.514-798.288 265.02-789.438 265.02-780.587 265.034-772.09 261.527-765.84 255.264-759.563 249.013-756.043 240.517-756.056 231.653-756.056 213.228-771 198.284-789.438 198.284ZM-799.273 241.49-799.26 241.49C-796.633 244.116-796.633 248.371-799.26 250.997-800.521 252.258-802.241 252.967-804.014 252.967-805.8 252.967-807.52 252.258-808.781 250.997-813.915 245.876-816.791 238.916-816.791 231.667-816.791 224.405-813.915 217.458-808.781 212.337-807.52 211.063-805.8 210.354-804.014 210.354-802.241 210.354-800.521 211.063-799.26 212.337-796.647 214.95-796.647 219.192-799.26 221.818-804.697 227.255-804.697 236.053-799.26 241.49ZM-437.884 12.2213-286.592 12.2213C-285.134 12.2082-283.716 12.6809-282.56 13.5608-282.521 13.6133-282.482 13.6396-282.429 13.6658-282.219 13.8366-282.009 14.0336-281.812 14.2174L-195.418 100.625-195.431 100.638C-195.3 100.743-195.182 100.861-195.077 100.992-193.895 102.345-193.317 104.118-193.461 105.917L-193.461 302.959-193.422 302.959C-193.448 316.879-204.729 328.146-218.635 328.159L-437.899 328.159C-451.806 328.146-463.086 316.879-463.112 302.959L-463.112 37.3805C-463.086 23.4608-451.819 12.1935-437.899 12.1673ZM-268.089 98.6554-216.361 98.6554-279.841 35.1115-279.841 86.8389C-279.828 93.3261-274.575 98.5788-268.088 98.605ZM-294.536 136.462C-313.157 117.828-343.359 117.828-361.98 136.462-370.923 145.391-375.939 157.525-375.939 170.17-375.939 182.816-370.922 194.95-361.98 203.878-343.346 222.486-313.167 222.486-294.536 203.878-285.593 194.949-280.564 182.815-280.564 170.17-280.564 157.524-285.594 145.39-294.536 136.462ZM-317.294 149.712-317.294 149.699C-314.667 147.072-310.399 147.072-307.786 149.699-305.16 152.325-305.16 156.567-307.786 159.193L-318.764 170.171-307.786 181.149C-305.16 183.776-305.16 188.017-307.786 190.643-310.4 193.27-314.667 193.27-317.294 190.643L-328.259 179.678-339.224 190.643-339.211 190.63C-341.837 193.257-346.092 193.257-348.718 190.63-351.331 188.004-351.331 183.762-348.718 181.136L-337.74 170.158-348.718 159.18-348.718 159.193C-351.331 156.567-351.331 152.325-348.718 149.699-346.092 147.072-341.837 147.072-339.211 149.699L-328.259 160.664ZM218.301 225.049 39.3282 225.049C27.8246 225.075 17.9888 216.132 17.9888 204.694L17.9888 42.7114C17.9888 31.2869 27.8377 22.3439 39.3413 22.3439L286.588 22.3439C298.092 22.3439 307.915 31.2734 307.915 42.7114L307.915 143.709C315.229 146.676 320.416 153.295 321.585 161.095 322.215 165.127 322.924 168.068 322.347 172.153 325.669 174.687 327.245 177.221 329.622 180.518L329.622 180.504C335.479 188.397 335.479 199.191 329.622 207.083 327.245 210.379 325.656 212.914 322.347 215.448 322.898 219.546 322.215 222.5 321.585 226.505L321.585 226.492C320.154 236.223 312.511 243.853 302.793 245.284L302.399 245.376 302.399 311.273C302.386 313.925 300.81 316.315 298.381 317.379 295.952 318.443 293.128 317.983 291.159 316.197L270.056 296.775 249.281 315.922C247.377 317.905 244.475 318.522 241.927 317.497 239.393 316.473 237.725 314.017 237.725 311.273L237.725 245.376 237.358 245.31C227.627 243.892 219.997 236.249 218.566 226.518 218.487 226.033 218.408 225.547 218.317 225.074ZM294.506 141.321 294.506 42.7138 294.466 42.7138C294.466 38.6824 290.697 35.7802 286.587 35.7802L39.3264 35.7802C35.2029 35.7802 31.434 38.6823 31.434 42.7138L31.434 204.697C31.434 208.728 35.2029 211.63 39.3264 211.63L213.862 211.63C212.72 210.238 211.708 208.754 210.5 207.06 208.622 204.5 207.309 201.571 206.627 198.472L67.0364 198.472C63.3331 198.472 60.3129 195.465 60.3129 191.749 60.2997 186.771 56.2552 182.753 51.2781 182.766 47.5617 182.766 44.5546 179.759 44.5546 176.043L44.5546 71.3812C44.5546 67.6648 47.5618 64.6577 51.2781 64.6577 53.6682 64.6577 55.9661 63.7122 57.6732 62.0182 59.3672 60.311 60.3127 58.013 60.3127 55.6231 60.3127 51.9067 63.3199 48.8996 67.0362 48.8996L258.878 48.8996C260.664 48.8996 262.371 49.6087 263.632 50.8694 264.893 52.13 265.602 53.8371 265.602 55.6232 265.602 58.0132 266.547 60.3112 268.241 62.0052 269.935 63.6992 272.233 64.6578 274.623 64.6578 276.409 64.6578 278.117 65.3669 279.377 66.6276 280.638 67.8883 281.347 69.5954 281.347 71.3814L281.347 132.918C282.017 133.325 282.686 133.759 283.369 134.258 286.639 136.661 289.174 138.224 291.708 141.533L291.708 141.546C292.641 141.415 293.573 141.349 294.505 141.349ZM259.18 149.541C258.576 150.29 258.104 151.143 257.788 152.05 257.079 153.691 255.74 154.965 254.072 155.621 252.417 156.265 250.566 156.225 248.938 155.503 245.825 154.164 242.634 155.03 239.456 155.503L239.443 155.503C235.49 156.107 232.378 159.207 231.774 163.172 231.275 166.35 230.382 169.554 231.774 172.653 232.523 174.334 232.549 176.238 231.84 177.919 231.144 179.613 229.778 180.939 228.071 181.596 224.959 182.791 223.278 185.772 221.413 188.32 218.997 191.524 218.997 195.949 221.413 199.14 223.147 201.544 224.998 204.708 227.782 205.772 227.966 205.851 228.163 205.904 228.36 205.995L228.347 206.009C231.735 207.506 233.284 211.458 231.8 214.859 230.461 217.972 231.328 221.163 231.8 224.354L231.8 224.341C232.391 228.306 235.504 231.419 239.469 232.009 242.647 232.508 245.851 233.428 248.95 232.049 250.631 231.313 252.522 231.3 254.203 232.009 255.897 232.705 257.223 234.058 257.893 235.765 259.101 238.877 262.069 240.545 264.617 242.436 267.821 244.839 272.233 244.839 275.438 242.436 277.841 240.677 281.005 238.851 282.069 236.054 282.148 235.87 282.201 235.673 282.293 235.476 283.79 232.089 287.755 230.552 291.143 232.049 294.256 233.389 297.447 232.509 300.625 232.01 304.603 231.432 307.716 228.32 308.293 224.341 308.792 221.15 309.712 217.959 308.333 214.847L308.333 214.86C307.597 213.179 307.584 211.275 308.28 209.581 308.989 207.9 310.342 206.56 312.049 205.904 315.161 204.696 316.842 201.754 318.72 199.18 321.123 195.963 321.123 191.551 318.72 188.346 316.974 185.943 315.148 182.805 312.338 181.715 312.154 181.649 311.957 181.583 311.76 181.504L311.76 181.518C308.372 180.007 306.836 176.042 308.333 172.641 309.673 169.528 308.793 166.337 308.294 163.159 307.703 159.193 304.59 156.081 300.625 155.491 300.415 155.491 300.205 155.438 299.955 155.399 296.987 154.886 294.006 154.204 291.117 155.477 289.45 156.187 287.572 156.187 285.891 155.491 284.223 154.795 282.897 153.455 282.227 151.774 281.032 148.662 278.077 146.981 275.504 145.103 272.3 142.7 267.887 142.7 264.683 145.103 262.923 146.377 260.468 147.94 259.233 149.542ZM270.04 164.879 270.054 164.879C281.741 164.879 292.286 171.931 296.764 182.726 301.242 193.533 298.76 205.969 290.5 214.242 282.227 222.502 269.791 224.984 258.983 220.506 248.189 216.028 241.137 205.483 241.137 193.796 241.137 177.827 254.085 164.879 270.054 164.879ZM280.992 182.844C271.275 173.126 254.597 180.034 254.597 193.783 254.597 207.532 271.275 214.439 280.992 204.722 283.895 201.833 285.523 197.893 285.523 193.783 285.523 189.685 283.895 185.746 280.992 182.844ZM570.628 12.1675 721.907 12.1675C723.365 12.1544 724.783 12.6272 725.938 13.507 725.991 13.5464 726.043 13.5858 726.096 13.6121 726.293 13.7828 726.49 13.9666 726.687 14.1636L813.094 100.571C813.212 100.689 813.317 100.794 813.435 100.939 814.63 102.291 815.208 104.064 815.038 105.85L815.038 302.96C815.024 316.866 803.757 328.147 789.838 328.16L570.627 328.16C556.708 328.147 545.427 316.879 545.414 302.96L545.414 37.3808C545.427 23.4611 556.708 12.1939 570.627 12.1676ZM740.423 98.6017 792.151 98.6017 728.671 35.1082 728.671 86.8355C728.684 93.3227 733.937 98.5754 740.424 98.6017ZM1312.63 86.3628 1298.51 78.2079C1274.85 119.205 1251.17 160.218 1227.49 201.255L1241.61 209.436C1265.27 168.426 1288.95 127.416 1312.63 86.3891ZM1288.86 154.307C1284.38 162.042 1279.92 169.79 1275.48 177.538L1275.48 177.498 1250.05 221.517C1250 221.635 1249.94 221.74 1249.88 221.845L1249.88 221.832C1249.41 222.647 1248.78 223.342 1248.03 223.894L1215.33 251.117 1215.32 251.117C1213.17 252.876 1210.13 253.113 1207.72 251.721 1205.3 250.329 1204 247.597 1204.43 244.839L1211.71 202.475 1211.72 202.475C1211.87 201.582 1212.21 200.728 1212.69 199.966L1277.84 87.1391 1303.21 43.1875C1306.81 36.9498 1314.57 34.061 1320.69 37.6853L1336.66 46.9039C1342.94 50.5282 1344.24 58.9064 1340.36 65.1441L1327.64 87.1926ZM1288.86 161.031 1288.86 299.165C1288.83 312.783 1277.8 323.814 1264.18 323.853L1051.19 323.853C1037.57 323.827 1026.54 312.783 1026.51 299.165L1026.51 41.1775C1026.54 27.5466 1037.57 16.5029 1051.2 16.4763L1198.32 16.4763C1199.72 16.4894 1201.09 16.9622 1202.22 17.8158 1202.49 18.0259 1202.74 18.2491 1202.98 18.4986L1273.12 88.6215 1258.91 113.244 1209.82 198.286 1209.82 198.273C1209.11 199.402 1208.64 200.663 1208.41 201.976L1201.15 247.74 1201.15 247.727C1201.77 251.259 1204.21 254.201 1207.57 255.435 1210.94 256.683 1214.7 256.052 1217.47 253.781L1250.12 226.624C1251.22 225.81 1252.14 224.785 1252.81 223.617 1260.38 210.524 1267.94 197.419 1275.52 184.314L1275.73 183.947 1275.82 183.776 1275.94 183.592 1276.15 183.224 1276.19 183.146C1280.42 175.792 1284.66 168.438 1288.9 161.071ZM1216.12 100.442 1265.88 100.442 1204.92 39.4327 1204.92 89.2271C1204.93 95.412 1209.95 100.428 1216.15 100.442ZM1328.95 58.0132 1314.83 49.8582 1314.78 49.9764 1305.17 66.6144 1319.28 74.7693 1328.7 58.4857ZM1223.29 214.281 1220.71 229.238 1232.38 219.534ZM1595.4 59.378 1595.4 34.4933C1595.41 22.1755 1605.39 12.1954 1617.73 12.1823L1745.55 12.1823C1746.95 12.1955 1748.33 12.6682 1749.45 13.5218 1749.49 13.5612 1749.53 13.5874 1749.57 13.6268L1749.61 13.6268C1749.82 13.7976 1750.03 13.9946 1750.22 14.1784L1823.14 87.0982 1823.13 87.0982 1823.45 87.4134 1823.43 87.4265C1824.63 88.7791 1825.22 90.5782 1825.06 92.3774L1825.06 258.613C1825.05 270.931 1815.07 280.924 1802.74 280.95L1782.08 280.95 1782.08 305.822C1782.07 318.139 1772.09 328.12 1759.77 328.146L1574.76 328.146C1562.44 328.133 1552.46 318.152 1552.44 305.822L1552.44 81.7136C1552.44 69.3826 1562.44 59.3895 1574.76 59.3764ZM1782.12 267.491 1802.78 267.491C1807.68 267.478 1811.64 263.512 1811.64 258.614L1811.68 258.614 1811.68 98.5506 1761.02 98.5506C1748.7 98.5374 1738.72 88.5571 1738.71 76.2396L1738.71 25.6048 1617.73 25.6048C1612.83 25.6179 1608.86 29.5838 1608.84 34.4819L1608.84 59.3535 1702.55 59.3535C1703.99 59.3798 1705.37 59.8394 1706.53 60.7061L1706.6 60.7849 1706.68 60.8242C1706.89 60.995 1707.08 61.1657 1707.27 61.3495L1780.22 134.296C1780.26 134.362 1780.33 134.428 1780.38 134.493 1780.42 134.546 1780.47 134.585 1780.51 134.638L1780.52 134.638C1781.72 135.99 1782.31 137.789 1782.14 139.589L1782.14 267.493ZM1761.02 85.0887 1802.12 85.0887 1752.13 35.0961 1752.13 76.2238 1752.15 76.2369C1752.16 81.135 1756.14 85.0878 1761.02 85.1009ZM1718.07 132.311 1759.17 132.311 1709.18 82.3186 1709.18 123.433 1709.19 123.446C1709.21 128.344 1713.17 132.31 1718.07 132.323ZM-2824.34 818.412-2966.25 818.425C-2979.69 818.399-2990.57 807.5-2990.6 794.066L-2990.6 540.791C-2990.57 527.357-2979.69 516.458-2966.25 516.431L-2821.95 516.431C-2820.49 516.418-2819.07 516.891-2817.92 517.784-2817.88 517.784-2817.84 517.85-2817.8 517.863-2817.59 518.033-2817.38 518.204-2817.19 518.401L-2734.8 600.818C-2734.67 600.936-2734.55 601.067-2734.44 601.186L-2734.44 601.173C-2733.25 602.525-2732.68 604.298-2732.83 606.084L-2732.83 705.753C-2717.5 719.502-2708.74 739.147-2708.76 759.763-2708.76 779.028-2716.42 797.516-2730.05 811.147-2743.67 824.778-2762.16 832.447-2781.43 832.447-2796.86 832.46-2811.91 827.549-2824.35 818.422ZM-2804.31 598.859-2755.75 598.859-2815.21 539.373-2815.21 587.96C-2815.19 593.975-2810.33 598.847-2804.31 598.86ZM-2739.54 717.859-2739.54 717.872C-2750.64 706.762-2765.72 700.511-2781.42 700.511-2797.13 700.511-2812.2 706.762-2823.31 717.872-2834.41 728.981-2840.65 744.044-2840.65 759.749-2840.65 775.455-2834.41 790.53-2823.31 801.64-2821.61 803.321-2819.81 804.897-2817.93 806.381L-2817.88 806.42C-2806.48 815.323-2792.23 819.749-2777.78 818.869-2763.35 817.989-2749.75 811.857-2739.52 801.64-2728.41 790.531-2722.17 775.468-2722.17 759.749-2722.17 744.043-2728.41 728.982-2739.52 717.872ZM-2767.11 735.928-2767.11 735.941C-2765.85 734.681-2764.14 733.958-2762.37 733.958-2760.58 733.958-2758.87 734.681-2757.61 735.941-2754.99 738.568-2754.99 742.822-2757.61 745.449L-2771.91 759.749-2757.61 774.063C-2754.99 776.676-2754.99 780.944-2757.61 783.57-2758.87 784.831-2760.58 785.54-2762.37 785.54-2764.14 785.54-2765.85 784.831-2767.11 783.57L-2781.42 769.257-2795.74 783.57C-2798.36 786.184-2802.62 786.184-2805.24 783.57-2807.87 780.944-2807.87 776.676-2805.24 774.063L-2790.93 759.749-2805.24 745.449C-2807.87 742.822-2807.87 738.567-2805.24 735.941-2802.62 733.315-2798.36 733.315-2795.74 735.941L-2781.42 750.242ZM-2455.04 516.402-2303.76 516.402-2303.76 516.415C-2302.31 516.402-2300.89 516.875-2299.73 517.768-2299.68 517.768-2299.64 517.847-2299.59 517.886L-2299.57 517.873C-2299.38 518.044-2299.18 518.227-2298.98 518.411L-2212.58 604.818-2212.24 605.186C-2211.04 606.539-2210.46 608.312-2210.63 610.097L-2210.63 807.207C-2210.65 821.127-2221.91 832.407-2235.83 832.42L-2455.11 832.42-2455.1 832.42C-2469.02 832.407-2480.3 821.127-2480.31 807.207L-2480.31 541.628C-2480.28 527.722-2469.02 516.442-2455.1 516.415ZM-2285.25 602.85-2233.52 602.85-2296.99 539.383-2296.99 591.11C-2296.97 597.598-2291.72 602.863-2285.23 602.89ZM-1241.25 789.531-1241.25 809.82C-1241.27 822.295-1251.37 832.407-1263.84 832.433L-1452.03 832.433C-1464.51 832.407-1474.61 822.296-1474.62 809.82L-1474.62 581.89-1474.62 581.903C-1474.61 569.428-1464.51 559.316-1452.03 559.29L-1432.49 559.29-1432.49 539.014C-1432.48 526.539-1422.37 516.441-1409.89 516.427L-1279.89 516.427C-1278.48 516.454-1277.13 516.926-1276 517.78-1275.74 517.977-1275.47 518.213-1275.22 518.45L-1201.04 592.593C-1200.99 592.672-1200.93 592.738-1200.86 592.803-1200.79 592.856-1200.77 592.921-1200.73 592.948-1199.52 594.3-1198.93 596.086-1199.1 597.885L-1199.1 766.972C-1199.13 779.447-1209.22 789.545-1221.69 789.559ZM-1432.51 572.725-1452.05 572.725-1452.05 572.738C-1457.09 572.751-1461.17 576.835-1461.19 581.891L-1461.19 809.822-1461.19 809.808C-1461.17 814.864-1457.09 818.948-1452.05 818.961L-1263.84 818.961C-1258.79 818.948-1254.7 814.864-1254.69 809.808L-1254.69 789.533-1409.91 789.533-1409.9 789.533C-1422.37 789.52-1432.48 779.422-1432.51 766.946ZM-1264.17 590.597-1222.07 590.597-1273.31 539.357-1273.31 581.47C-1273.3 586.513-1269.2 590.597-1264.16 590.61ZM-1950.78 516.43-1799.5 516.43C-1798.04 516.417-1796.62 516.89-1795.47 517.783-1795.41 517.809-1795.37 517.849-1795.32 517.888-1795.11 518.059-1794.9 518.229-1794.7 518.426L-1708.31 604.834C-1708.18 604.952-1708.06 605.083-1707.94 605.201L-1707.96 605.201C-1706.79 606.554-1706.21 608.327-1706.37 610.112L-1706.37 807.222-1706.31 807.222C-1706.34 821.142-1717.62 832.422-1731.53 832.436L-1950.8 832.436C-1964.72 832.422-1976 821.142-1976.02 807.222L-1976.02 541.644C-1975.99 527.737-1964.72 516.457-1950.8 516.43ZM-1780.98 602.878-1729.25 602.878-1792.72 539.384-1792.72 591.112C-1792.71 597.599-1787.45 602.865-1780.97 602.891ZM-1807.41 640.738C-1826.04 622.104-1856.24 622.104-1874.86 640.738-1883.8 649.667-1888.82 661.801-1888.82 674.446-1888.82 687.092-1883.8 699.226-1874.86 708.155-1856.22 726.763-1826.05 726.763-1807.41 708.155-1798.47 699.225-1793.44 687.091-1793.44 674.446-1793.44 661.8-1798.47 649.667-1807.41 640.738ZM-1851.5 650.219C-1851.5 646.503-1848.48 643.496-1844.77 643.496-1842.99 643.496-1841.28 644.205-1840.02 645.465-1838.76 646.726-1838.05 648.433-1838.05 650.219L-1838.05 678.387-1824.1 686.45-1824.09 686.45C-1822.56 687.33-1821.43 688.787-1820.97 690.508-1820.51 692.215-1820.74 694.04-1821.64 695.576-1823.49 698.781-1827.57 699.883-1830.79 698.058L-1847.56 688.354C-1849.95 687.277-1851.48 684.874-1851.48 682.248ZM1244.61 602.906 1296.34 602.906 1232.87 539.385 1232.87 591.113C1232.89 597.6 1238.14 602.866 1244.63 602.892ZM1748.88 602.906 1800.6 602.906 1737.14 539.385 1737.14 591.113C1737.14 597.6 1742.4 602.866 1748.89 602.892ZM66.2834 516.431 217.616 516.431C219.074 516.418 220.492 516.891 221.648 517.784 221.7 517.81 221.74 517.85 221.779 517.889 221.989 518.06 222.199 518.23 222.396 518.427L308.803 604.848C308.922 604.966 309.027 605.098 309.145 605.216 310.34 606.555 310.918 608.341 310.747 610.127L310.747 807.237C310.721 821.143 299.453 832.424 285.534 832.45L66.2833 832.45C52.3636 832.424 41.0833 821.143 41.0701 807.237L41.0701 541.658C41.0964 527.738 52.3636 516.471 66.2833 516.445ZM236.092 602.892 287.82 602.892 224.34 539.385 224.34 591.113C224.34 597.6 229.606 602.866 236.093 602.892ZM-302.999 818.425-444.902 818.425C-458.349 818.398-469.235 807.499-469.262 794.065L-469.262 540.79C-469.235 527.356-458.349 516.457-444.902 516.431L-300.622 516.431C-299.164 516.417-297.746 516.89-296.591 517.783-296.551 517.783-296.512 517.849-296.472 517.862L-296.433 517.862C-296.223 518.033-296.013 518.203-295.816 518.4L-213.426 600.817C-213.308 600.935-213.176 601.067-213.085 601.185L-213.085 601.172C-211.903 602.524-211.325 604.297-211.496 606.083L-211.496 705.752C-196.158 719.501-187.385 739.134-187.398 759.739-187.398 779.016-195.054 797.491-208.685 811.123-222.303 824.754-240.793 832.423-260.07 832.423-275.499 832.449-290.549 827.538-302.986 818.398ZM-282.986 598.872-234.412 598.872-293.898 539.385-293.898 587.973-293.885 587.96C-293.859 593.974-288.987 598.846-282.972 598.859ZM-218.205 717.871C-229.301 706.762-244.377 700.524-260.082 700.524-275.788 700.524-290.85 706.762-301.96 717.871-313.069 728.981-319.307 744.043-319.307 759.749-319.307 775.467-313.069 790.529-301.96 801.639-300.266 803.32-298.466 804.896-296.575 806.38L-296.523 806.419C-285.138 815.323-270.876 819.748-256.444 818.868-242.012 817.989-228.408 811.856-218.177 801.639-207.068 790.53-200.817 775.468-200.817 759.749-200.817 744.043-207.068 728.968-218.177 717.871ZM-233.123 753.038C-231.337 753.038-229.629 753.734-228.369 754.995-227.108 756.269-226.399 757.976-226.399 759.762-226.399 761.535-227.108 763.255-228.369 764.516-229.629 765.777-231.337 766.486-233.123 766.486L-253.359 766.486-253.359 786.722C-253.359 788.495-254.068 790.215-255.329 791.476-256.589 792.736-258.296 793.445-260.082 793.445-263.799 793.445-266.806 790.425-266.806 786.722L-266.806 766.46-287.042 766.46C-290.758 766.46-293.766 763.452-293.766 759.736-293.766 756.02-290.758 753.013-287.042 753.013L-266.806 753.013-266.806 732.842C-266.806 729.126-263.799 726.119-260.082 726.119-258.296 726.119-256.589 726.828-255.329 728.088-254.068 729.349-253.359 731.056-253.359 732.842L-253.359 753.078ZM-2888.47 163.454C-2886.7 163.454-2884.98 164.163-2883.72 165.423-2882.46 166.684-2881.75 168.391-2881.75 170.177-2881.75 171.963-2882.46 173.67-2883.72 174.931-2884.98 176.192-2886.7 176.901-2888.47 176.901L-2911.28 176.901-2911.3 199.671C-2911.3 201.457-2912.01 203.165-2913.27 204.425-2914.53 205.686-2916.23 206.395-2918.02 206.395-2921.72 206.395-2924.74 203.388-2924.74 199.672L-2924.74 176.875-2947.55 176.875-2947.55 176.888C-2951.27 176.888-2954.28 173.868-2954.28 170.164-2954.28 166.448-2951.27 163.441-2947.55 163.441L-2924.74 163.441-2924.74 140.657C-2924.74 136.941-2921.72 133.934-2918.02 133.934-2916.23 133.934-2914.53 134.643-2913.27 135.904-2912.01 137.164-2911.3 138.871-2911.3 140.657L-2911.3 163.454ZM522.365 523.162C522.365 519.445 525.385 516.438 529.088 516.438L618.635 516.438C622.352 516.438 625.359 519.445 625.359 523.162 625.359 526.878 622.352 529.885 618.635 529.885L535.812 529.885 535.812 612.695C535.812 616.412 532.805 619.419 529.088 619.419 525.385 619.419 522.365 616.412 522.365 612.695ZM742.113 529.885C738.396 529.885 735.389 526.878 735.389 523.162 735.389 519.445 738.396 516.438 742.113 516.438L831.646 516.438C833.432 516.438 835.14 517.147 836.4 518.408 837.661 519.669 838.37 521.376 838.37 523.162L838.37 612.695C838.37 616.412 835.363 619.419 831.647 619.419 827.943 619.419 824.923 616.412 824.923 612.695L824.923 529.885ZM824.923 736.199C824.923 732.483 827.943 729.476 831.646 729.476 835.363 729.476 838.37 732.483 838.37 736.199L838.37 825.733C838.37 827.519 837.661 829.226 836.4 830.487 835.139 831.748 833.432 832.457 831.646 832.457L742.113 832.457C738.396 832.457 735.389 829.45 735.389 825.733 735.389 822.03 738.396 819.01 742.113 819.01L824.923 819.01ZM618.635 818.983C622.352 818.983 625.359 821.99 625.359 825.706 625.359 829.423 622.352 832.43 618.635 832.43L529.088 832.43C525.385 832.43 522.365 829.423 522.365 825.706L522.365 736.199C522.365 732.483 525.385 729.476 529.088 729.476 532.805 729.476 535.812 732.483 535.812 736.199L535.812 819.01ZM1257.84-321.964 1320.57-321.964C1322.36-321.964 1324.06-321.255 1325.32-319.994 1326.58-318.733 1327.29-317.013 1327.29-315.24L1327.29-237.459C1327.29-235.673 1326.58-233.966 1325.32-232.705 1324.06-231.445 1322.36-230.736 1320.57-230.736L1257.87-230.736 1257.87-213.296C1257.84-200.309 1247.32-189.79 1234.33-189.764L1034.85-189.764C1021.85-189.764 1011.32-200.296 1011.32-213.296L1011.32-454.909C1011.34-467.897 1021.86-478.415 1034.85-478.442L1172.61-478.442C1174.03-478.428 1175.41-477.956 1176.54-477.102L1176.67-476.984C1176.88-476.813 1177.09-476.642 1177.29-476.459L1255.9-397.851C1255.96-397.785 1256.01-397.719 1256.08-397.654 1256.12-397.601 1256.16-397.549 1256.21-397.496 1257.41-396.144 1258-394.358 1257.84-392.572ZM1313.85-308.517 1152.55-308.517 1152.55-244.169 1313.85-244.169ZM1550.08-419.414 1550.08-419.401C1550.08-423.118 1553.08-426.125 1556.8-426.125L1577.64-426.125C1592.85-426.085 1605.17-413.768 1605.22-398.561 1605.17-383.355 1592.85-371.05 1577.64-370.997L1556.8-370.997C1553.08-370.997 1550.08-374.005 1550.08-377.721ZM1577.64-412.691 1563.52-412.691 1563.52-384.379 1577.64-384.379C1590.02-384.379 1596.62-399.52 1587.62-408.515L1587.63-408.515C1584.99-411.168 1581.4-412.678 1577.64-412.678ZM1635.7-426.138 1635.7-426.125C1650.92-426.125 1663.26-413.794 1663.26-398.561 1663.26-383.341 1650.92-370.997 1635.7-370.997 1620.48-370.997 1608.13-383.341 1608.13-398.561 1608.13-413.794 1620.48-426.125 1635.7-426.125ZM1645.71-408.554C1636.83-417.431 1621.56-411.128 1621.56-398.548 1621.56-385.98 1636.81-379.677 1645.71-388.554L1645.71-388.541C1651.22-394.069 1651.22-403.012 1645.71-408.541ZM1705.02-388.568C1707.65-391.194 1711.9-391.194 1714.53-388.568 1717.16-385.941 1717.16-381.686 1714.53-379.06 1703.76-368.305 1686.31-368.305 1675.54-379.06 1670.37-384.234 1667.45-391.247 1667.45-398.561 1667.45-405.876 1670.37-412.888 1675.54-418.062 1686.31-428.804 1703.76-428.804 1714.53-418.062 1717.16-415.436 1717.16-411.181 1714.53-408.555 1711.9-405.928 1707.65-405.928 1705.02-408.555 1696.15-417.432 1680.87-411.128 1680.87-398.548 1680.87-385.981 1696.15-379.677 1705.02-388.555ZM1164.32-293.295 1164.33-293.295C1164.33-297.012 1167.34-300.019 1171.06-300.019L1187.98-300.019C1200.23-299.993 1210.45-290.643 1211.55-278.443 1212.66-290.656 1222.89-300.019 1235.15-300.019 1241.43-300.019 1247.46-297.524 1251.89-293.085 1256.33-288.647 1258.83-282.632 1258.83-276.355 1258.83-263.276 1248.23-252.665 1235.15-252.652 1222.89-252.665 1212.64-262.028 1211.55-274.254 1210.45-262.055 1200.23-252.691 1187.98-252.652L1171.04-252.652C1167.33-252.652 1164.32-255.672 1164.32-259.376ZM1188-286.572 1177.77-286.572 1177.77-266.099 1187.98-266.099C1196.91-266.099 1201.72-277.038 1195.2-283.578L1195.2-283.591C1193.29-285.508 1190.7-286.585 1187.98-286.598ZM1242.39-283.565C1235.97-289.999 1224.91-285.429 1224.91-276.342 1224.91-267.255 1235.94-262.672 1242.39-269.107L1242.4-269.094C1244.32-271.011 1245.4-273.611 1245.4-276.329 1245.4-279.034 1244.32-281.647 1242.4-283.565ZM1290.6-269.106 1290.6-269.093C1293.22-271.72 1297.48-271.72 1300.1-269.093 1302.72-266.467 1302.72-262.212 1300.1-259.586 1290.85-250.367 1275.88-250.367 1266.62-259.586 1262.18-264.025 1259.67-270.039 1259.67-276.329 1259.67-282.606 1262.18-288.634 1266.62-293.072 1275.88-302.317 1290.86-302.317 1300.1-293.072 1302.72-290.433 1302.72-286.191 1300.1-283.565 1297.48-280.939 1293.22-280.939 1290.6-283.565 1284.15-290 1273.12-285.417 1273.12-276.343 1273.12-267.269 1284.15-262.659 1290.6-269.107ZM-2230.84-361.161-2242.15-367.701-2304.6-259.506-2293.3-252.993C-2272.47-289.054-2251.66-325.113-2230.84-361.174ZM-2272.37-255.777-2272.37-213.506-2272.37-213.52C-2272.38-200.545-2282.89-190.027-2295.86-190.013L-2494.99-190.013C-2507.97-190.013-2518.5-200.532-2518.52-213.52L-2518.52-454.685C-2518.52-460.923-2516.04-466.911-2511.63-471.323-2507.22-475.736-2501.23-478.217-2494.99-478.217L-2357.59-478.217C-2356.14-478.231-2354.72-477.758-2353.56-476.878L-2353.43-476.76-2353.42-476.76C-2353.19-476.602-2353-476.418-2352.81-476.221L-2274.35-397.758-2274.01-397.39-2274.01-397.403C-2272.81-396.051-2272.24-394.265-2272.39-392.479L-2272.39-348.907-2285.79-325.717-2322.28-262.435C-2322.99-261.319-2323.46-260.058-2323.68-258.758L-2324.53-253.847-2324.53-253.834C-2325.68-255.291-2327.43-256.132-2329.28-256.132L-2461.54-256.132C-2464.88-256.132-2467.6-253.413-2467.6-250.078-2467.6-246.729-2464.88-244.024-2461.54-244.024L-2329.28-244.024C-2328.14-244.024-2327.02-244.352-2326.06-244.956L-2330.01-221.91C-2330.61-218.509-2330.24-215.633-2327.99-212.914-2324.43-208.647-2318.09-208.069-2313.81-211.614L-2285.1-235.501-2284.64-235.882-2284.66-235.882C-2284.14-236.289-2283.66-236.736-2283.23-237.222L-2283.04-237.471ZM-2272.37-342.157-2238.87-400.188C-2235.51-406.058-2228.18-408.789-2222.32-405.362L-2208.1-397.168C-2202.31-393.806-2200.93-386.163-2204.34-380.254L-2215.66-360.622C-2215.74-360.504-2215.8-360.373-2215.88-360.255L-2215.88-360.268C-2215.94-360.149-2216.01-360.031-2216.08-359.926L-2271.32-264.274-2285.76-239.481-2285.76-239.468C-2286.07-239.114-2286.42-238.785-2286.79-238.496L-2315.95-214.215-2315.94-214.215C-2318.79-211.878-2322.99-212.272-2325.36-215.095L-2325.42-215.174C-2326.14-216.08-2326.63-217.144-2326.83-218.299-2326.95-219.324-2326.89-220.361-2326.68-221.372L-2320.35-258.194-2320.35-258.18C-2320.2-259.087-2319.87-259.94-2319.38-260.702ZM-2340.77-399.701-2295.3-399.701-2350.83-455.26-2350.83-409.772C-2350.83-404.205-2346.32-399.687-2340.75-399.687ZM-271.31-311.034C-308.524-269.775-378.398-269.775-415.576-311.087-417.887-313.661-417.861-317.561-415.537-320.108-387.631-350.771-341.524-359.266-303.6-343.01-291.295-337.797-280.265-329.97-271.269-320.069-268.958-317.495-268.971-313.595-271.309-311.047ZM-308.881-300.489-308.867-300.489C-300.318-304.127-292.453-309.235-285.65-315.578-297.653-326.858-312.833-333.792-328.721-336.418-321.932-331.651-317.9-323.864-317.9-315.578-317.9-307.279-321.958-299.505-328.747-294.725-321.906-295.854-315.235-297.798-308.866-300.516ZM-358.124-336.43C-374.026-333.777-389.194-326.844-401.194-315.59-389.257-304.402-374.09-297.402-358.124-294.75L-358.11-294.75C-364.899-299.517-368.944-307.291-368.944-315.59-368.944-323.889-364.9-331.663-358.11-336.43ZM-334.88-324.099C-342.47-331.689-355.484-326.292-355.484-315.563-355.484-304.834-342.47-299.424-334.88-307.041-330.192-311.768-330.192-319.385-334.88-324.099ZM-934.214-398.871-947.661-385.424-939.073-376.823-925.626-390.27ZM-929.565-367.276-853.045-290.729-839.598-304.176-916.145-380.696ZM-840.506-284.258-829.606-280.764-833.099-291.664ZM-957.576-394.527-943.327-408.775C-938.521-413.581-930.602-414.264-925.704-409.366L-825.299-308.96-825.312-308.973C-824.419-308.093-823.802-306.977-823.513-305.769L-812.85-272.493-812.863-272.493C-812.101-270.103-812.731-267.477-814.504-265.704-816.277-263.918-818.89-263.275-821.28-264.036L-854.569-274.712-854.582-274.699C-855.791-274.988-856.907-275.605-857.773-276.485L-943.841-362.553-958.168-376.893C-963.066-381.791-962.383-389.71-957.577-394.516ZM-1392.79-354.357-1432.91-354.357-1432.91-314.238-1392.79-314.238ZM-1406.46-345.414C-1403.56-347.699-1399.35-347.213-1397.06-344.311-1395.94-342.919-1395.44-341.146-1395.64-339.387-1395.85-337.614-1396.75-335.999-1398.15-334.909L-1413.01-323.169-1413.02-323.156C-1415.73-321.041-1419.6-321.304-1421.99-323.773L-1428.23-330.208C-1430.79-332.887-1430.71-337.128-1428.05-339.702-1425.38-342.263-1421.14-342.171-1418.57-339.505L-1416.54-337.43ZM-1392.79-270.248-1432.91-270.248-1432.91-230.129-1392.79-230.129ZM-1406.46-261.306-1406.46-261.319C-1403.56-263.604-1399.35-263.105-1397.06-260.216-1394.77-257.3-1395.26-253.098-1398.15-250.8L-1413.01-239.06-1413.02-239.06C-1415.73-236.933-1419.6-237.208-1421.99-239.677L-1428.23-246.112C-1430.78-248.778-1430.7-253.019-1428.05-255.593-1425.38-258.154-1421.14-258.075-1418.57-255.409L-1416.54-253.334ZM29.1458-451.178 16.8545-438.886 24.5368-431.178 36.828-443.496ZM34.0438-421.67 73.6756-382.039 106.203-349.498 118.508-361.789 64.1551-416.169 46.3351-433.989ZM118.757-343.012 127.962-340.057 125.008-349.263ZM6.70267-447.764 20.2153-461.264C24.9163-465.965 32.6642-466.648 37.4443-461.842L51.0489-448.237 62.1061-437.193 62.1061-437.232C66.584-432.794 71.0753-428.368 75.5531-423.943L75.5531-423.733 132.78-366.506 137.875-353.019 144.678-331.811C145.426-329.421 144.796-326.808 143.023-325.035 141.25-323.263 138.65-322.619 136.26-323.368L113.975-330.498 100.528-336.197 75.6567-361.122 19.8448-416.934 6.14835-430.551C1.36827-435.332 2.01171-443.066 6.69988-447.767ZM62.1448-441.947 62.1448-460.174C62.171-473.568 73.0311-484.428 86.4388-484.455L230.194-484.455C231.612-484.429 232.978-483.956 234.108-483.102 234.16-483.063 234.213-483.024 234.252-482.971 234.475-482.8 234.672-482.616 234.869-482.419L316.889-400.399C317.021-400.294 317.139-400.163 317.231-400.032 318.426-398.679 319.004-396.906 318.833-395.107L318.833-208.032 318.872-208.032C318.846-194.625 307.999-183.778 294.591-183.751L86.4381-183.751C73.0304-183.778 62.1703-194.625 62.1441-208.032L62.1441-369.79 98.599-333.335 100.503-332.534 101.173-332.245 112.781-327.321 113.95-326.94 113.95-315.594 151.336-315.594 151.336-353.02 141.395-353.02 141.054-354.124 136.707-365.798 136.458-366.468 135.788-368.28 135.315-368.779C115.683-389.33 95.3944-409.16 75.1836-429.069L74.9734-429.279 74.9209-429.318ZM-2823.05-176.106-2974.33-176.106C-2988.25-176.119-2999.51-187.399-2999.54-201.319L-2999.54-466.898C-2999.51-480.804-2988.25-492.085-2974.33-492.111L-2755.05-492.111C-2741.14-492.085-2729.86-480.804-2729.84-466.898L-2729.88-466.898-2729.88-269.788C-2729.72-268.002-2730.3-266.216-2731.48-264.864-2731.58-264.732-2731.7-264.614-2731.82-264.509L-2818.21-178.088C-2818.41-177.905-2818.61-177.721-2818.83-177.563L-2818.87-177.524-2818.99-177.445-2818.98-177.445C-2820.11-176.578-2821.5-176.105-2822.92-176.105ZM-2752.83-262.553-2804.56-262.553C-2811.05-262.527-2816.3-257.261-2816.33-250.774L-2816.33-199.047ZM1526.01-453.162 1558.58-453.162 1558.58-466.911 1558.58-466.897C1558.6-480.817 1569.89-492.097 1583.79-492.111L1803.07-492.111C1816.99-492.097 1828.26-480.817 1828.28-466.897L1828.28-269.814C1828.45-268.015 1827.88-266.216 1826.67-264.877 1826.63-264.824 1826.57-264.772 1826.54-264.719 1826.47-264.667 1826.4-264.601 1826.34-264.535L1739.9-178.101C1739.71-177.917 1739.51-177.733 1739.3-177.563L1739.26-177.523C1739.22-177.51 1739.2-177.484 1739.17-177.458 1738.03-176.591 1736.65-176.118 1735.22-176.105L1583.79-176.105C1569.89-176.131 1558.61-187.399 1558.58-201.318L1558.58-343.971 1526.01-343.971C1522.3-343.971 1519.29-346.978 1519.29-350.695L1519.29-446.427C1519.29-450.144 1522.3-453.151 1526.01-453.151ZM1734.32-439.715 1532.72-439.715 1532.72-357.429 1734.32-357.429ZM1805.34-262.567 1753.61-262.567C1747.11-262.541 1741.85-257.275 1741.83-250.788L1741.83-199.047ZM555.607-492.111 706.926-492.111C708.384-492.124 709.802-491.651 710.958-490.771 711.01-490.745 711.05-490.706 711.089-490.666 711.312-490.496 711.509-490.312 711.706-490.115L798.113-403.721C798.232-403.59 798.337-403.472 798.455-403.34 799.65-401.988 800.228-400.215 800.057-398.429L800.057-201.333C800.031-187.426 788.763-176.146 774.844-176.12L555.607-176.12C541.7-176.146 530.42-187.426 530.394-201.333L530.394-466.911C530.42-480.831 541.7-492.098 555.607-492.125ZM725.429-405.663 777.157-405.663 713.65-469.143 713.65-417.416C713.676-410.929 718.942-405.676 725.429-405.663ZM247.757-402.38 296.005-402.38 236.912-461.487 236.912-413.202C236.926-407.24 241.758-402.408 247.733-402.381ZM151.487-273.161 114.101-273.161 114.101-235.748 151.487-235.748ZM-1461.45-492.109-1310.03-492.109C-1308.62-492.096-1307.24-491.623-1306.11-490.77-1306.06-490.73-1306.01-490.691-1305.97-490.638-1305.75-490.468-1305.54-490.284-1305.34-490.087L-1218.94-403.693C-1218.83-403.575-1218.71-403.443-1218.6-403.312-1217.41-401.96-1216.83-400.187-1217-398.388L-1217-201.305-1216.96-201.305C-1216.99-187.398-1228.27-176.118-1242.18-176.092L-1461.45-176.092C-1475.37-176.118-1486.64-187.398-1486.67-201.305L-1486.67-466.884C-1486.64-480.803-1475.37-492.071-1461.45-492.097ZM-1291.65-405.661-1239.93-405.661-1303.41-469.142-1303.41-417.414-1303.42-417.414C-1303.39-410.94-1298.14-405.687-1291.65-405.661ZM-957.2-492.109-805.763-492.109C-804.358-492.096-802.979-491.623-801.863-490.77-801.797-490.73-801.745-490.691-801.692-490.638-801.482-490.468-801.272-490.284-801.088-490.087L-714.681-403.693C-714.563-403.562-714.458-403.443-714.34-403.312L-714.326-403.312C-713.131-401.96-712.554-400.187-712.724-398.388L-712.724-201.305C-712.751-187.398-724.031-176.118-737.938-176.092L-957.215-176.092C-971.134-176.118-982.415-187.398-982.428-201.305L-982.428-466.884C-982.402-480.803-971.134-492.071-957.215-492.097ZM-787.378-405.661-735.65-405.661-799.13-469.142-799.13-417.414-799.144-417.414C-799.117-410.927-793.865-405.674-787.378-405.661ZM-452.923-492.109-301.644-492.109C-300.187-492.109-298.768-491.636-297.6-490.77-297.56-490.743-297.508-490.717-297.482-490.665-297.272-490.494-297.075-490.31-296.891-490.113L-210.483-403.719C-210.365-403.588-210.26-403.47-210.142-403.338L-210.129-403.338C-208.947-401.986-208.356-400.213-208.527-398.427L-208.527-201.331C-208.54-187.424-219.807-176.144-233.727-176.118L-452.924-176.118C-466.83-176.144-478.11-187.424-478.137-201.331L-478.137-466.91C-478.11-480.829-466.83-492.097-452.924-492.123ZM-283.128-405.661-231.4-405.661-294.88-469.142-294.88-417.414C-294.854-410.94-289.602-405.687-283.127-405.661ZM-1965.72-492.109-1814.44-492.109C-1812.98-492.109-1811.57-491.636-1810.4-490.77-1810.36-490.743-1810.3-490.717-1810.28-490.665-1810.07-490.494-1809.87-490.31-1809.69-490.113L-1723.28-403.719C-1723.16-403.588-1723.06-403.47-1722.94-403.338L-1722.93-403.338C-1721.74-401.986-1721.15-400.213-1721.32-398.427L-1721.32-201.331C-1721.34-187.424-1732.6-176.144-1746.52-176.118L-1965.8-176.118C-1979.71-176.144-1990.99-187.424-1991.01-201.331L-1991.01-466.91C-1990.99-480.829-1979.71-492.097-1965.8-492.123ZM-1795.92-405.661-1744.2-405.661-1807.68-469.142-1807.68-417.414C-1807.65-410.94-1802.4-405.687-1795.92-405.661ZM-1822.37-367.801C-1831.32-376.744-1843.44-381.774-1856.08-381.774-1868.73-381.774-1880.86-376.744-1889.8-367.801-1907.89-349.732-1908.49-320.592-1891.14-301.787-1888.41-313.224-1878.19-321.301-1866.44-321.327L-1845.75-321.327C-1833.98-321.301-1823.76-313.224-1821.02-301.787-1803.7-320.592-1804.29-349.719-1822.37-367.801ZM-1878.41-291.94C-1864.45-284.573-1847.76-284.573-1833.81-291.94-1833.81-296.72-1833.45-300.489-1837.34-304.389-1839.56-306.621-1842.59-307.882-1845.76-307.882L-1866.45-307.882C-1873.03-307.856-1878.37-302.538-1878.4-295.958ZM-1856.11-369.445C-1843-369.445-1832.38-358.821-1832.38-345.716-1832.38-339.426-1834.87-333.398-1839.33-328.947-1843.78-324.495-1849.82-321.987-1856.11-322-1869.21-322-1879.84-332.624-1879.84-345.716-1879.82-358.821-1869.21-369.432-1856.11-369.445ZM-1848.85-352.978C-1855.28-359.439-1866.38-354.843-1866.38-345.716-1866.38-336.589-1855.28-331.993-1848.85-338.454L-1848.85-338.467C-1846.92-340.384-1845.84-342.998-1845.84-345.716-1845.84-348.447-1846.92-351.06-1848.85-352.978ZM-2216.19-386.372-2227.49-392.912-2235.34-379.307-2224.04-372.781ZM-2308.66-246.439-2310.43-236.157-2302.37-242.841ZM1189.58-399.819 1235.18-399.819 1179.5-455.497 1179.5-409.915C1179.52-404.347 1184.03-399.856 1189.58-399.829ZM-2308.66-996.363-2308.67-996.363C-2307.22-996.376-2305.78-995.904-2304.63-995.01-2304.59-994.971-2304.55-994.932-2304.5-994.905-2304.29-994.735-2304.08-994.564-2303.88-994.367L-2217.49-907.96-2217.5-907.947C-2217.37-907.842-2217.26-907.723-2217.16-907.592-2215.96-906.24-2215.39-904.467-2215.56-902.681L-2215.56-705.571-2215.52-705.571C-2215.53-691.651-2226.81-680.371-2240.73-680.358L-2460.01-680.358C-2473.91-680.371-2485.19-691.651-2485.22-705.571L-2485.22-971.15C-2485.19-985.056-2473.91-996.337-2460.01-996.363ZM-2290.17-909.916-2238.44-909.916-2301.92-973.396-2301.92-921.695-2301.94-921.682C-2301.92-915.195-2296.67-909.929-2290.18-909.903ZM-2345.98-811.349-2345.98-811.336C-2345.98-809.55-2346.69-807.843-2347.95-806.582-2349.21-805.321-2350.92-804.612-2352.71-804.612-2356.42-804.612-2359.43-807.619-2359.43-811.336L-2359.43-811.808C-2359.43-815.525-2356.42-818.532-2352.71-818.532-2350.92-818.532-2349.21-817.823-2347.95-816.562-2346.69-815.301-2345.98-813.594-2345.98-811.808ZM-2354.05-853.293-2354.06-853.28C-2354.06-851.508-2354.75-849.787-2356.02-848.526-2357.29-847.266-2359-846.557-2360.78-846.557-2364.49-846.557-2367.51-849.577-2367.51-853.28-2367.51-868.657-2354.2-875.473-2343.49-870.457-2337.75-867.765-2333.22-861.921-2333.22-853.28-2333.22-839.465-2345.59-839.387-2345.59-829.551L-2345.58-829.564C-2345.58-827.778-2346.28-826.071-2347.55-824.797-2348.81-823.536-2350.53-822.84-2352.3-822.84-2356.02-822.84-2359.02-825.848-2359.02-829.564-2359.02-845.703-2346.67-848.172-2346.67-853.293-2346.67-857.692-2349.71-859.478-2351.96-858.401-2353.14-857.85-2354.06-856.208-2354.06-853.293ZM-2316.63-872.125-2316.65-872.112C-2325.59-881.055-2337.71-886.084-2350.35-886.084-2363-886.084-2375.13-881.054-2384.08-872.112-2402.67-853.477-2402.67-823.299-2384.08-804.668-2365.45-786.047-2335.26-786.047-2316.64-804.668-2298.01-823.289-2298.01-853.491-2316.64-872.112ZM-326.574-862.88-326.574-862.867C-326.574-861.081-327.283-859.374-328.544-858.113-329.804-856.852-331.525-856.143-333.297-856.143-337.014-856.143-340.021-859.15-340.021-862.867L-340.021-863.339C-340.021-867.056-337.014-870.063-333.297-870.063-331.525-870.063-329.804-869.354-328.544-868.093-327.283-866.832-326.574-865.125-326.574-863.339ZM-326.574-813.687-326.574-813.674C-326.574-811.888-327.283-810.181-328.544-808.92-329.804-807.66-331.525-806.951-333.297-806.951-337.014-806.951-340.021-809.958-340.021-813.674L-340.021-845.689C-340.021-849.406-337.014-852.413-333.297-852.413-331.525-852.413-329.804-851.704-328.544-850.443-327.283-849.182-326.574-847.475-326.574-845.689ZM-299.089-872.595-299.089-872.582C-308.163-881.643-320.467-886.725-333.285-886.725-346.102-886.725-358.406-881.643-367.48-872.582-376.567-863.508-381.663-851.203-381.663-838.36-381.65-825.53-376.542-813.225-367.454-804.15-358.393-795.089-346.088-789.981-333.272-789.981-320.442-789.981-308.137-795.089-299.076-804.15-290.002-813.224-284.907-825.516-284.907-838.346-284.907-851.176-290.002-863.467-299.076-872.542ZM-291.617-996.402-291.63-996.389C-290.172-996.415-288.741-995.942-287.585-995.049L-287.454-994.931C-287.244-994.761-287.034-994.59-286.837-994.393L-200.429-907.986C-200.311-907.867-200.206-907.736-200.088-907.618-198.906-906.279-198.315-904.493-198.486-902.707L-198.486-705.597C-198.512-691.69-209.793-680.41-223.699-680.384L-442.936-680.384C-456.856-680.41-468.123-691.69-468.149-705.597L-468.149-971.176C-468.123-985.095-456.856-996.363-442.936-996.389ZM-273.101-909.955-221.4-909.955-284.88-973.435-284.88-921.734-284.893-921.721C-284.88-915.221-279.614-909.955-273.114-909.942ZM1742-861.972C1751.2-861.985 1760.02-858.335 1766.52-851.834 1773.02-845.321 1776.68-836.51 1776.67-827.317 1776.7-817.6 1772.61-808.316 1765.44-801.762L1765.44-745.756C1765.44-743.103 1763.85-740.7 1761.43-739.623 1758.98-738.559 1756.15-739.032 1754.19-740.831L1742-752.046 1730.13-741.133 1730.13-741.12C1728.23-739.15 1725.33-738.52 1722.78-739.544 1720.24-740.568 1718.58-743.024 1718.56-745.756L1718.56-801.763C1711.39-808.315 1707.32-817.599 1707.34-827.317 1707.34-846.45 1722.86-861.974 1742-861.974ZM1752.01-794.105C1748.77-793.133 1745.39-792.647 1742-792.647 1738.62-792.647 1735.24-793.133 1732-794.105L1732-761.118 1737.47-766.147C1740.03-768.498 1743.97-768.498 1746.55-766.147 1748.4-764.506 1750.21-762.786 1752.02-761.118ZM1757-842.313C1753.03-846.292 1747.64-848.524 1742-848.524 1736.38-848.524 1730.99-846.292 1727.01-842.313 1723.03-838.334 1720.78-832.936 1720.78-827.316 1720.78-821.683 1723.03-816.286 1727.01-812.307 1727.72-811.597 1728.49-810.928 1729.29-810.337L1729.29-810.297C1736.82-804.703 1747.13-804.703 1754.65-810.297L1754.72-810.337 1754.7-810.337C1755.5-810.941 1756.27-811.597 1756.97-812.307 1760.95-816.286 1763.19-821.683 1763.19-827.316 1763.19-832.937 1760.95-838.334 1756.97-842.313ZM1725.54-996.321C1726.97-996.308 1728.35-995.836 1729.49-994.982L1729.61-994.903 1729.59-994.903C1729.82-994.732 1730.01-994.549 1730.21-994.365L1816.62-907.957C1816.74-907.839 1816.84-907.708 1816.96-907.59 1818.15-906.237 1818.73-904.464 1818.56-902.679L1818.56-705.569C1818.54-691.649 1807.27-680.369 1793.35-680.356L1574.11-680.356C1560.21-680.369 1548.94-691.649 1548.92-705.569L1548.92-971.147C1548.94-985.054 1560.21-996.334 1574.11-996.361L1725.54-996.361ZM1743.93-909.874 1795.66-909.874 1732.18-973.354 1732.18-921.654 1732.17-921.654C1732.18-915.153 1737.43-909.887 1743.93-909.874ZM1221.18-996.321C1222.64-996.335 1224.06-995.862 1225.21-994.982L1225.34-994.864C1225.55-994.693 1225.76-994.522 1225.96-994.325L1312.37-907.918 1312.71-907.55C1313.9-906.211 1314.48-904.425 1314.31-902.639L1314.31-705.529C1314.29-691.61 1303.02-680.342 1289.1-680.316L1069.87-680.316C1055.96-680.342 1044.69-691.61 1044.66-705.529L1044.66-971.108C1044.69-985.028 1055.96-996.295 1069.87-996.321ZM1239.7-909.874 1291.4-909.874 1227.92-973.354 1227.92-921.654 1227.9-921.654C1227.93-915.153 1233.2-909.887 1239.68-909.874ZM716.944-996.321 716.93-996.321C718.388-996.335 719.82-995.862 720.975-994.982 721.014-994.943 721.054-994.903 721.106-994.864 721.316-994.693 721.527-994.522 721.724-994.325L808.117-907.918 808.104-907.918C808.235-907.8 808.341-907.682 808.446-907.55 809.641-906.211 810.218-904.425 810.048-902.639L810.048-705.529 810.087-705.529C810.074-691.61 798.794-680.342 784.874-680.316L565.623-680.316C551.717-680.342 540.437-691.61 540.41-705.529L540.41-971.108C540.437-985.028 551.717-996.295 565.623-996.321ZM735.433-909.874 787.161-909.874 723.681-973.354 723.681-921.654 723.667-921.654C723.681-915.166 728.933-909.9 735.42-909.874ZM-1322.3-851.897-1322.31-851.897C-1319.7-853.946-1315.92-853.499-1313.85-850.912-1311.79-848.299-1312.24-844.517-1314.84-842.442L-1345.58-818.201C-1348-816.27-1351.5-816.507-1353.64-818.752L-1366.53-832.068C-1368.84-834.471-1368.76-838.293-1366.35-840.604-1363.95-842.902-1360.16-842.823-1357.85-840.433L-1348.76-831.017ZM-1305.79-874.3-1377.73-874.3-1377.73-802.365-1305.79-802.365ZM-1300.12-996.322-1300.13-996.322C-1298.67-996.335-1297.24-995.862-1296.09-994.982-1296.05-994.943-1295.99-994.904-1295.96-994.864-1295.75-994.693-1295.56-994.523-1295.36-994.326L-1208.96-907.918-1208.62-907.551C-1207.42-906.211-1206.84-904.425-1207.01-902.64L-1207.01-705.53C-1207.03-691.61-1218.31-680.33-1232.23-680.317L-1451.5-680.317C-1465.41-680.343-1476.68-691.623-1476.69-705.53L-1476.69-971.108C-1476.68-985.028-1465.41-996.295-1451.5-996.322ZM-1281.6-909.874-1229.87-909.874-1293.35-973.354-1293.35-921.654-1293.38-921.654C-1293.37-915.154-1288.12-909.888-1281.61-909.875ZM177.4-869.217 183.021-851.791 201.392-851.791C207.853-851.791 210.545-843.465 205.319-839.683L190.453-828.928 196.152-811.45 196.139-811.463C197.059-808.6 195.969-805.475 193.474-803.807 190.965-802.14 187.669-802.337 185.384-804.28L170.952-814.799 156.113-803.965 156.1-803.965C153.119-801.824 148.956-802.481 146.764-805.449 145.477-807.182 145.122-809.441 145.818-811.49L151.517-828.968 136.652-839.723 136.652-839.736C134.262-841.509 133.33-844.634 134.354-847.431 135.365-850.215 138.097-852.014 141.064-851.831L158.937-851.831 164.583-869.309C166.606-875.521 175.43-875.442 177.361-869.256ZM205.187-872.513 205.174-872.513C196.1-881.574 183.808-886.656 170.978-886.656 158.162-886.656 145.87-881.574 136.796-872.513 127.735-863.439 122.653-851.148 122.666-838.317 122.666-825.501 127.774-813.209 136.849-804.148 145.91-795.088 158.214-789.979 171.031-789.979 183.861-789.979 196.166-795.088 205.227-804.148 214.301-813.223 219.396-825.514 219.396-838.344 219.396-851.174 214.301-863.466 205.227-872.54ZM212.659-996.32 212.646-996.32C214.104-996.333 215.522-995.86 216.678-994.98 216.73-994.941 216.77-994.902 216.809-994.862 217.019-994.692 217.203-994.521 217.4-994.324L303.807-907.917C303.925-907.798 304.03-907.667 304.148-907.549L304.162-907.549C305.343-906.209 305.921-904.424 305.764-902.638L305.764-705.528C305.737-691.608 294.457-680.328 280.551-680.315L61.3539-680.315C47.4474-680.341 36.1801-691.621 36.167-705.528L36.167-971.107C36.1801-985.026 47.4474-996.294 61.3539-996.32ZM231.175-909.872 282.903-909.872 219.423-973.352 219.423-921.652 219.396-921.652C219.396-915.152 224.662-909.886 231.149-909.873ZM-2868.06-837.554-2868.09-837.554C-2870.71-834.954-2874.96-834.954-2877.6-837.554-2878.86-838.815-2879.57-840.535-2879.57-842.321-2879.57-844.094-2878.86-845.814-2877.6-847.075L-2858.86-865.775C-2856.16-867.955-2852.26-867.745-2849.82-865.276L-2831.62-847.075C-2830.36-845.814-2829.65-844.094-2829.65-842.321-2829.65-840.535-2830.36-838.815-2831.62-837.554-2834.25-834.928-2838.5-834.928-2841.13-837.554L-2847.85-844.33-2847.85-816.097C-2847.85-814.311-2848.56-812.59-2849.82-811.33-2851.08-810.069-2852.8-809.373-2854.58-809.373-2858.29-809.373-2861.3-812.38-2861.3-816.097L-2861.3-844.33ZM-2820.84-872.053C-2829.78-880.996-2841.92-886.025-2854.56-886.025-2867.21-886.025-2879.33-880.995-2888.27-872.053-2906.88-853.418-2906.88-823.24-2888.27-804.609-2869.65-785.988-2839.46-785.988-2820.84-804.609-2802.21-823.23-2802.21-853.432-2820.84-872.053ZM-2812.89-996.333-2812.89-996.347C-2811.44-996.36-2810.02-995.887-2808.86-994.994-2808.81-994.968-2808.77-994.928-2808.73-994.889-2808.52-994.718-2808.34-994.548-2808.14-994.351L-2721.73-907.943C-2721.61-907.825-2721.51-907.694-2721.39-907.576L-2721.38-907.576C-2720.2-906.223-2719.61-904.45-2719.78-902.664L-2719.78-705.555C-2719.79-691.635-2731.07-680.354-2744.98-680.341L-2964.26-680.341C-2978.18-680.354-2989.45-691.635-2989.46-705.555L-2989.46-971.133C-2989.45-985.04-2978.18-996.32-2964.26-996.346ZM-2794.38-909.886-2742.65-909.886-2806.13-973.366-2806.13-921.665-2806.14-921.665C-2806.13-915.178-2800.88-909.912-2794.38-909.886ZM-795.814-996.333-795.814-996.347C-794.357-996.36-792.938-995.887-791.783-994.994-791.743-994.955-791.691-994.915-791.651-994.889-791.441-994.718-791.231-994.548-791.034-994.351L-704.64-907.943-704.64-907.93C-704.522-907.825-704.404-907.707-704.299-907.576-703.117-906.223-702.526-904.45-702.697-902.664L-702.697-705.555-702.658-705.555C-702.684-691.635-713.964-680.354-727.871-680.341L-947.148-680.341C-961.068-680.354-972.348-691.635-972.361-705.555L-972.361-971.133C-972.335-985.04-961.068-996.32-947.148-996.346ZM-777.324-909.886-725.597-909.886-789.077-973.366-789.077-921.665C-789.064-915.178-783.811-909.912-777.324-909.886ZM-1785.85-909.886-1734.15-909.886-1797.63-973.366-1797.63-921.665C-1797.62-915.178-1792.35-909.912-1785.85-909.886ZM-819.952-306.686-809.341-273.515-809.328-273.528C-808.159-269.943-809.105-266.003-811.771-263.324-814.423-260.632-818.363-259.661-821.961-260.829L-855.158-271.492-855.158-271.479C-856.944-271.913-858.572-272.832-859.872-274.119-893.319-307.592-926.778-341.051-960.251-374.497-966.489-380.748-965.714-390.82-959.66-396.887L-945.399-411.136C-939.345-417.189-929.26-417.964-923.009-411.727L-822.59-311.334C-821.303-310.034-820.384-308.432-819.937-306.66ZM-268.455-308.774C-307.038-266.069-379.208-266.029-417.711-308.84-421.164-312.7-421.138-318.544-417.658-322.365-403.384-338.032-384.342-348.327-363.635-352.45L-363.622-352.45C-342.886-356.561-321.391-354.354-301.927-346.108-289.162-340.697-277.725-332.582-268.401-322.313-264.96-318.452-264.974-312.621-268.44-308.787ZM1768.87-800.363 1768.87-744.37 1768.87-744.383C1768.78-741.862 1767.5-739.538 1765.43-738.106 1761.84-735.335 1756.24-734.744 1752.26-738.146L1751.97-738.408 1742.05-747.535 1732.51-738.723C1725.96-732.381 1715.24-736.858 1715.24-745.814L1715.24-800.366C1708.06-807.509 1704.03-817.214 1704.04-827.338 1704.04-848.336 1721.06-865.357 1742.06-865.357 1752.14-865.37 1761.82-861.364 1768.95-854.234 1776.08-847.103 1780.09-837.425 1780.09-827.34 1780.1-817.215 1776.05-807.511 1768.87-800.367ZM-2909.01-760.338-2909.01-760.352C-2912.35-760.352-2915.05-757.633-2915.05-754.298-2915.05-750.949-2912.35-748.244-2909.01-748.244L-2800.18-748.244C-2796.84-748.244-2794.14-750.949-2794.14-754.298-2794.14-757.633-2796.84-760.352-2800.18-760.352ZM-2915.07-728.743-2915.05-728.743C-2915.05-725.408-2912.35-722.689-2909.01-722.689L-2800.18-722.689C-2796.84-722.689-2794.14-725.408-2794.14-728.743-2794.14-732.092-2796.84-734.797-2800.18-734.797L-2909.01-734.797C-2912.35-734.797-2915.05-732.092-2915.05-728.743ZM110.513-754.298 110.526-754.298C110.526-750.949 113.231-748.244 116.567-748.244L225.403-748.244C228.739-748.244 231.444-750.949 231.444-754.298 231.444-757.634 228.739-760.352 225.403-760.352L116.567-760.352C113.231-760.352 110.526-757.634 110.526-754.298ZM110.513-728.743 110.526-728.743C110.526-725.408 113.231-722.689 116.567-722.689L225.403-722.689C228.739-722.689 231.444-725.408 231.444-728.743 231.444-732.092 228.739-734.797 225.403-734.797L116.567-734.797C113.231-734.797 110.526-732.092 110.526-728.743ZM1604.88-745.841C1604.88-742.492 1607.6-739.787 1610.93-739.787L1667.85-739.787C1671.18-739.787 1673.89-742.492 1673.89-745.841 1673.89-749.176 1671.18-751.882 1667.85-751.882L1610.96-751.882C1607.61-751.882 1604.91-749.176 1604.91-745.841ZM1610.93-801.901 1610.93-801.888C1607.6-801.888 1604.88-799.183 1604.88-795.835 1604.88-792.499 1607.6-789.794 1610.93-789.794L1667.85-789.794C1671.18-789.794 1673.89-792.499 1673.89-795.835 1673.89-799.183 1671.18-801.888 1667.85-801.888ZM1610.93-851.894 1610.93-851.881C1607.6-851.881 1604.88-849.176 1604.88-845.827 1604.88-842.492 1607.6-839.773 1610.93-839.773L1667.85-839.773C1671.18-839.773 1673.89-842.492 1673.89-845.827 1673.89-849.176 1671.18-851.881 1667.85-851.881ZM1610.93-901.887 1610.93-901.874C1607.6-901.874 1604.88-899.169 1604.88-895.82 1604.88-892.484 1607.6-889.779 1610.93-889.779L1687.44-889.779C1690.78-889.779 1693.48-892.484 1693.48-895.82 1693.48-899.168 1690.78-901.874 1687.44-901.874ZM1616.44 610.904 1616.44 610.917C1613.1 610.917 1610.4 613.622 1610.4 616.97 1610.4 620.306 1613.1 623.011 1616.44 623.011L1692.94 623.011C1696.28 623.011 1699 620.306 1699 616.97 1699 613.622 1696.28 610.917 1692.94 610.917ZM1616.44 660.896 1616.44 660.909C1613.1 660.909 1610.4 663.615 1610.4 666.963 1610.4 670.299 1613.1 673.017 1616.44 673.017L1762.08 673.017C1765.43 673.017 1768.14 670.299 1768.14 666.963 1768.14 663.615 1765.43 660.909 1762.08 660.909ZM1770.55 718.046 1731.33 755.116 1716.1 739.371 1716.1 739.384C1713.74 737.231 1710.12 737.27 1707.82 739.489 1705.51 741.695 1705.33 745.32 1707.39 747.762L1726.73 767.749C1729.02 770.178 1732.84 770.296 1735.27 768.011L1778.81 726.843 1778.83 726.843C1780.95 724.506 1780.93 720.921 1778.76 718.623 1776.59 716.325 1773.01 716.075 1770.55 718.058ZM1610.38 716.917 1610.38 716.943C1610.38 720.278 1613.09 722.984 1616.42 722.984L1673.34 722.984C1676.67 722.984 1679.39 720.279 1679.39 716.943 1679.39 713.594 1676.67 710.889 1673.34 710.889L1616.42 710.889C1613.09 710.889 1610.38 713.594 1610.38 716.943ZM1610.38 766.909 1610.38 766.936C1610.38 770.271 1613.09 772.99 1616.42 772.99L1673.34 772.99C1676.67 772.99 1679.39 770.271 1679.39 766.936 1679.39 763.587 1676.67 760.882 1673.34 760.882L1616.42 760.882C1613.09 760.882 1610.38 763.587 1610.38 766.936ZM1155.44 661.357C1156.57 662.499 1158.1 663.13 1159.7 663.13 1161.32 663.13 1162.86 662.499 1163.98 661.357L1179.18 646.111 1178.51 688.724C1178.73 691.876 1181.33 694.319 1184.48 694.358 1187.63 694.397 1190.29 692.007 1190.58 688.856L1191.21 645.664 1206.87 661.33 1206.87 661.344C1207.98 662.578 1209.54 663.313 1211.21 663.366 1212.86 663.418 1214.46 662.788 1215.65 661.619 1216.83 660.451 1217.47 658.849 1217.44 657.181 1217.4 655.526 1216.68 653.95 1215.46 652.834L1189.71 627.082C1188.57 625.953 1187.03 625.31 1185.43 625.31 1183.83 625.31 1182.28 625.953 1181.15 627.082L1155.44 652.834C1154.29 653.976 1153.66 655.513 1153.66 657.115 1153.66 658.717 1154.29 660.267 1155.44 661.396ZM1218.76 702.027 1218.76 711.496 1152.26 711.496 1152.43 702.474 1152.42 702.487C1152.22 699.349 1149.63 696.88 1146.48 696.827 1143.32 696.788 1140.66 699.165 1140.36 702.303L1140.11 716.879C1139.89 720.517 1142.4 723.603 1146.17 723.603L1224.82 723.603C1228.16 723.603 1230.88 720.898 1230.88 717.549L1230.88 702.04C1230.88 698.705 1228.16 695.986 1224.82 695.986 1221.48 695.986 1218.77 698.705 1218.77 702.04ZM1124.59 758.508 1124.57 758.508C1124.57 761.857 1127.28 764.562 1130.63 764.562L1239.44 764.562C1242.77 764.562 1245.48 761.857 1245.48 758.508 1245.48 755.173 1242.77 752.468 1239.44 752.468L1130.6 752.468C1127.27 752.468 1124.55 755.173 1124.55 758.508ZM1149.37 784.063 1149.35 784.063C1149.35 787.399 1152.06 790.117 1155.41 790.117L1214.66 790.117C1218 790.117 1220.71 787.399 1220.71 784.063 1220.71 780.714 1218 778.009 1214.66 778.009L1155.41 778.009C1152.06 778.009 1149.35 780.714 1149.35 784.063ZM732.51 711.338C735.846 711.338 738.564 708.62 738.564 705.284 738.564 701.936 735.846 699.23 732.51 699.23L628.965 699.23C625.629 699.23 622.911 701.936 622.911 705.284 622.911 708.62 625.629 711.338 628.965 711.338ZM699.326 746.885C702.675 746.885 705.38 744.167 705.38 740.832 705.38 737.483 702.675 734.778 699.326 734.778L628.964 734.778C625.629 734.778 622.911 737.483 622.911 740.832 622.911 744.167 625.629 746.885 628.964 746.885ZM622.913 634.189C622.913 637.525 625.632 640.243 628.967 640.243L683.347 640.243C686.682 640.243 689.388 637.525 689.388 634.189 689.388 630.841 686.682 628.135 683.347 628.135L628.967 628.135C625.632 628.135 622.913 630.841 622.913 634.189ZM116.028 758.507C116.028 761.842 118.733 764.561 122.082 764.561L230.865 764.561C234.213 764.561 236.918 761.843 236.918 758.507 236.918 755.158 234.213 752.453 230.865 752.453L122.068 752.453C118.719 752.453 116.014 755.158 116.014 758.507ZM145.679 720.005C152.876 724.194 160.952 726.623 169.264 727.057 177.183 727.451 185.088 726.072 192.402 723.025 207.583 716.722 218.916 703.656 223.026 687.754 223.604 686.139 223.486 684.366 222.685 682.869 221.897 681.359 220.505 680.256 218.85 679.822 217.196 679.402 215.449 679.691 214.018 680.623 212.599 681.556 211.628 683.053 211.365 684.734 204.641 710.63 174.883 723.001 151.734 709.605L151.734 709.618C141.229 703.525 134.019 693.059 132.049 681.083 130.08 669.107 133.573 656.881 141.57 647.754 149.58 638.628 161.242 633.558 173.362 633.939 185.496 634.307 196.816 640.098 204.235 649.711L205.706 651.615 190.315 645.653 190.302 645.653C188.779 644.878 186.993 644.786 185.404 645.39 183.802 645.994 182.541 647.255 181.924 648.844 181.294 650.446 181.386 652.219 182.147 653.755 182.909 655.278 184.288 656.408 185.929 656.867L214.609 667.964C216.697 668.922 219.14 668.62 220.925 667.163 222.068 666.23 222.83 664.917 223.079 663.473L228.2 632.783C228.529 629.606 226.336 626.73 223.197 626.191 220.045 625.666 217.025 627.662 216.29 630.761L214.267 642.869 213.309 641.687 213.322 641.687C203.578 629.396 188.844 622.094 173.166 621.766 157.486 621.438 142.463 628.122 132.206 639.993 121.949 651.865 117.525 667.701 120.138 683.172 122.738 698.641 132.101 712.141 145.68 720.006ZM140.808 784.063C140.808 787.399 143.526 790.117 146.861 790.117L206.112 790.117C209.461 790.117 212.166 787.399 212.166 784.063 212.166 780.714 209.461 778.009 206.112 778.009L146.848 778.009C143.499 778.009 140.794 780.714 140.794 784.063ZM1609.09 142.102C1605.74 142.102 1603.03 144.807 1603.03 148.156 1603.03 151.491 1605.74 154.21 1609.09 154.21L1670.74 154.21C1674.08 154.21 1676.8 151.492 1676.8 148.156 1676.8 144.807 1674.08 142.102 1670.74 142.102ZM1609.09 182.389C1605.74 182.389 1603.03 185.095 1603.03 188.443 1603.03 191.779 1605.74 194.497 1609.09 194.497L1726.49 194.497C1729.82 194.497 1732.54 191.779 1732.54 188.443 1732.54 185.095 1729.82 182.389 1726.49 182.389ZM1609.09 222.73C1605.74 222.73 1603.03 225.436 1603.03 228.784 1603.03 232.12 1605.74 234.838 1609.09 234.838L1726.49 234.838C1729.82 234.838 1732.54 232.12 1732.54 228.784 1732.54 225.436 1729.82 222.73 1726.49 222.73ZM1603.03 269.086C1603.03 272.421 1605.74 275.14 1609.09 275.14L1726.49 275.14C1729.82 275.14 1732.54 272.421 1732.54 269.086 1732.54 265.737 1729.82 263.032 1726.49 263.032L1609.09 263.032C1605.74 263.032 1603.03 265.737 1603.03 269.086ZM1087.44 108.39C1084.11 108.39 1081.4 111.096 1081.4 114.444 1081.4 117.78 1084.11 120.498 1087.44 120.498L1161.75 120.498C1165.1 120.498 1167.81 117.78 1167.81 114.444 1167.81 111.096 1165.1 108.39 1161.75 108.39ZM1081.39 162.992 1081.4 162.992C1081.4 166.328 1084.11 169.046 1087.44 169.046L1209.31 169.046C1212.65 169.046 1215.36 166.328 1215.36 162.992 1215.36 159.643 1212.65 156.938 1209.31 156.938L1087.43 156.938C1084.09 156.938 1081.37 159.643 1081.37 162.992ZM1081.39 211.579 1081.4 211.579C1081.4 214.915 1084.11 217.62 1087.44 217.62L1188.74 217.62C1192.09 217.62 1194.8 214.915 1194.8 211.579 1194.8 208.231 1192.09 205.526 1188.74 205.526L1087.43 205.526C1084.09 205.526 1081.37 208.231 1081.37 211.579ZM1156.95 276.898 1156.96 276.885C1156.96 280.234 1159.67 282.939 1163.02 282.939L1237.33 282.939 1237.32 282.939C1240.66 282.939 1243.37 280.234 1243.37 276.885 1243.37 273.55 1240.66 270.831 1237.32 270.831L1162.99 270.831C1159.64 270.831 1156.94 273.55 1156.94 276.885ZM620.279 254.338 620.292 254.325C620.292 257.66 622.998 260.379 626.346 260.379L735.17 260.379C738.518 260.379 741.224 257.66 741.224 254.325 741.224 250.976 738.518 248.271 735.17 248.271L626.306 248.271C622.971 248.271 620.252 250.976 620.252 254.325ZM645.059 279.893 645.072 279.88C645.072 283.215 647.778 285.92 651.126 285.92L710.377 285.92C713.713 285.92 716.431 283.215 716.431 279.88 716.431 276.531 713.713 273.826 710.377 273.826L651.113 273.826C647.764 273.826 645.059 276.531 645.059 279.88ZM640.634 123.467 639.964 123.467 639.977 123.441C636.629 123.441 633.923 126.159 633.923 129.494L633.923 172.831 631.087 169.193C628.946 166.922 625.427 166.646 622.958 168.563 620.489 170.48 619.885 173.96 621.566 176.6L635.118 193.881 635.131 193.881C636.261 195.378 638.007 196.258 639.885 196.271 641.75 196.297 643.536 195.444 644.691 193.986L658.309 176.6C659.517 175.365 660.134 173.671 660.016 171.964 659.898 170.244 659.058 168.655 657.705 167.604 656.339 166.54 654.606 166.107 652.912 166.422 651.218 166.724 649.734 167.735 648.828 169.193L645.965 172.831 645.965 135.471 700.725 135.471C704.074 135.471 706.779 132.766 706.779 129.417 706.779 126.082 704.074 123.377 700.725 123.377ZM704.178 172.421 704.191 172.408C706.817 174.43 710.599 173.97 712.648 171.357L715.471 167.759 715.471 205.001 660.725 204.987C657.389 204.987 654.671 207.706 654.671 211.041 654.671 214.39 657.389 217.095 660.725 217.095L721.512 217.095C724.848 217.095 727.553 214.39 727.553 211.041L727.553 167.745 730.389 171.343 730.402 171.343C731.308 172.801 732.779 173.812 734.473 174.114 736.167 174.416 737.901 173.983 739.253 172.932 740.606 171.869 741.446 170.293 741.578 168.585 741.696 166.865 741.079 165.184 739.884 163.95L726.594 147.01C723.902 143.293 719.083 143.293 716.417 147.01L703.154 163.937 703.167 163.937C701.132 166.55 701.578 170.332 704.191 172.394ZM109.315 105.935C105.979 105.935 103.261 108.64 103.261 111.976 103.261 115.325 105.979 118.03 109.315 118.03L239.005 118.03C242.34 118.03 245.059 115.325 245.059 111.976 245.059 108.641 242.34 105.935 239.005 105.935ZM190.616 86.4344C193.964 86.4344 196.669 83.7161 196.669 80.3806 196.669 77.032 193.964 74.3267 190.616 74.3267L136.249 74.3267C132.901 74.3267 130.195 77.0319 130.195 80.3806 130.195 83.7161 132.901 86.4344 136.249 86.4344ZM87.8602 133.196C84.5116 133.196 81.8063 135.915 81.8063 139.25 81.8063 142.599 84.5115 145.304 87.8602 145.304L206.665 145.304C210.013 145.304 212.718 142.599 212.718 139.25 212.718 135.915 210.013 133.196 206.665 133.196ZM87.8602 160.458C84.5116 160.458 81.8063 163.163 81.8063 166.512 81.8063 169.848 84.5115 172.553 87.8602 172.553L186.35 172.553C189.698 172.553 192.403 169.848 192.403 166.512 192.403 163.164 189.698 160.458 186.35 160.458ZM1612.92-316.609C1609.59-316.609 1606.87-313.903 1606.87-310.555 1606.87-307.219 1609.59-304.514 1612.92-304.514L1774.29-304.514C1777.63-304.514 1780.34-307.219 1780.34-310.555 1780.34-313.903 1777.63-316.609 1774.29-316.609ZM1612.92-274.338C1609.59-274.338 1606.87-271.633 1606.87-268.284 1606.87-264.948 1609.59-262.243 1612.92-262.243L1689.41-262.243C1692.75-262.243 1695.46-264.948 1695.46-268.284 1695.46-271.633 1692.75-274.338 1689.41-274.338ZM1612.92-232.081C1609.59-232.081 1606.87-229.375 1606.87-226.027 1606.87-222.691 1609.59-219.986 1612.92-219.986L1689.41-219.986C1692.75-219.986 1695.46-222.691 1695.46-226.027 1695.46-229.375 1692.75-232.081 1689.41-232.081ZM1068.69-392.396C1065.34-392.396 1062.63-389.691 1062.63-386.342 1062.63-383.007 1065.34-380.288 1068.69-380.288L1138.28-380.288C1141.63-380.288 1144.34-383.007 1144.34-386.342 1144.34-389.691 1141.63-392.396 1138.28-392.396ZM1062.63-340.867C1062.63-337.531 1065.34-334.826 1068.69-334.826L1201.2-334.826C1204.55-334.826 1207.25-337.531 1207.25-340.867 1207.25-344.216 1204.55-346.921 1201.2-346.921L1068.69-346.921C1065.34-346.921 1062.63-344.216 1062.63-340.867ZM1062.63-295.366 1062.63-295.379C1062.63-292.03 1065.34-289.325 1068.69-289.325L1120.45-289.325C1123.8-289.325 1126.5-292.03 1126.5-295.379 1126.5-298.714 1123.8-301.419 1120.45-301.419L1068.69-301.419C1065.34-301.419 1062.63-298.714 1062.63-295.379ZM1062.63-249.891 1062.63-249.904C1062.63-246.569 1065.34-243.85 1068.69-243.85L1120.45-243.85C1123.8-243.85 1126.5-246.569 1126.5-249.904 1126.5-253.253 1123.8-255.958 1120.45-255.958L1068.69-255.958C1065.34-255.958 1062.63-253.253 1062.63-249.904ZM592.592-397.587C589.243-397.587 586.538-394.868 586.538-391.533 586.538-388.184 589.243-385.479 592.592-385.479L669.072-385.479C672.407-385.479 675.112-388.184 675.112-391.533 675.112-394.868 672.407-397.587 669.072-397.587ZM592.592-347.594 592.592-347.581C589.243-347.581 586.538-344.876 586.538-341.54 586.538-338.191 589.243-335.486 592.592-335.486L738.236-335.486C741.572-335.486 744.277-338.191 744.277-341.54 744.277-344.875 741.572-347.581 738.236-347.581ZM592.592-297.588 592.592-297.575C589.243-297.575 586.538-294.869 586.538-291.521 586.538-288.185 589.243-285.48 592.592-285.48L649.506-285.48 649.493-285.48C652.842-285.48 655.547-288.185 655.547-291.521 655.547-294.869 652.842-297.575 649.493-297.575ZM586.538-241.554 586.538-241.541C586.538-238.205 589.243-235.487 592.592-235.487L649.506-235.487 649.493-235.487C652.842-235.487 655.547-238.205 655.547-241.541 655.547-244.889 652.842-247.595 649.493-247.595L592.592-247.595C589.243-247.595 586.538-244.89 586.538-241.541ZM704.633-293.702 724.344-272.599 679.236-272.599C675.9-272.599 673.182-269.881 673.182-266.545 673.182-263.196 675.9-260.491 679.236-260.491L724.33-260.491 704.619-239.388 704.633-239.388C702.361-236.946 702.492-233.124 704.935-230.853 707.377-228.581 711.199-228.725 713.47-231.168L742.387-262.093 742.374-262.093C743.608-263.236 744.304-264.838 744.304-266.519 744.304-268.199 743.608-269.802 742.374-270.957L713.457-301.883 713.47-301.883C711.199-304.325 707.377-304.47 704.935-302.198 702.492-299.926 702.361-296.105 704.633-293.662ZM181.308-268.869C181.308-265.534 184.013-262.829 187.349-262.829L274.086-262.829C277.434-262.829 280.14-265.534 280.14-268.869 280.14-272.218 277.434-274.923 274.086-274.923L187.349-274.923C184.013-274.923 181.308-272.218 181.308-268.869ZM181.308-239.953 181.308-239.966C181.308-236.617 184.013-233.912 187.349-233.912L274.086-233.912C277.434-233.912 280.14-236.617 280.14-239.966 280.14-243.301 277.434-246.02 274.086-246.02L187.349-246.02C184.013-246.02 181.308-243.301 181.308-239.966ZM181.308-348.712C181.308-345.377 184.013-342.672 187.349-342.672L274.086-342.672C277.434-342.672 280.14-345.377 280.14-348.712 280.14-352.061 277.434-354.766 274.086-354.766L187.349-354.766C184.013-354.766 181.308-352.061 181.308-348.712ZM181.308-319.796 181.308-319.809C181.308-316.46 184.013-313.755 187.349-313.755L274.086-313.755C277.434-313.755 280.14-316.46 280.14-319.809 280.14-323.144 277.434-325.863 274.086-325.863L187.349-325.863C184.013-325.863 181.308-323.145 181.308-319.809ZM1119.04-754.236 1119.02-754.249C1119.02-750.913 1121.73-748.195 1125.08-748.195L1233.89-748.195C1237.22-748.195 1239.93-750.913 1239.93-754.249 1239.93-757.597 1237.22-760.303 1233.89-760.303L1125.09-760.303C1121.74-760.303 1119.04-757.597 1119.04-754.249ZM1119.04-728.681 1119.02-728.707C1119.02-725.359 1121.73-722.653 1125.08-722.653L1233.89-722.653C1237.22-722.653 1239.93-725.358 1239.93-728.707 1239.93-732.043 1237.22-734.748 1233.89-734.748L1125.09-734.748C1121.74-734.748 1119.04-732.043 1119.04-728.707ZM1178.38-887.497 1139.74-887.497C1136.41-887.497 1133.69-884.792 1133.69-881.443 1133.69-878.108 1136.41-875.389 1139.74-875.389L1173.11-875.389 1173.66-838.763 1158.43-853.996C1156.08-856.346 1152.25-856.346 1149.88-853.996 1148.75-852.853 1148.11-851.317 1148.11-849.715 1148.11-848.113 1148.75-846.563 1149.88-845.434L1175.63-819.682C1176.76-818.553 1178.3-817.909 1179.92-817.909 1181.52-817.909 1183.05-818.553 1184.18-819.682L1209.95-845.421 1209.95-845.434C1211.09-846.563 1211.72-848.113 1211.72-849.715 1211.72-851.317 1211.09-852.853 1209.95-853.995 1207.6-856.346 1203.76-856.346 1201.4-853.995L1185.73-838.329 1185.06-881.521 1185.06-881.508C1185.01-884.804 1182.34-887.456 1179.05-887.469L1178.38-887.469ZM1213.2-810.755 1213.2-801.287 1146.73-801.287 1146.89-810.308 1146.88-810.295C1146.91-813.618 1144.26-816.349 1140.94-816.415 1137.62-816.441 1134.89-813.788 1134.82-810.466L1134.56-795.903C1134.35-792.265 1136.84-789.179 1140.61-789.179L1219.28-789.179C1222.62-789.179 1225.32-791.885 1225.32-795.233L1225.32-810.768C1225.32-814.104 1222.62-816.809 1219.28-816.809 1215.93-816.809 1213.23-814.104 1213.23-810.768ZM617.13-852.541 613.125-858.044C611.391-860.434 608.043-860.972 605.639-859.252 603.236-857.505 602.698-854.144 604.431-851.74L616.289-835.404C617.116-834.117 618.443-833.237 619.953-832.988 621.463-832.738 622.999-833.145 624.194-834.104L640.543-845.962C642.933-847.695 643.472-851.044 641.752-853.447 640.005-855.85 636.643-856.389 634.24-854.655L627.517-849.757 628.029-851.622C630.327-859.685 634.634-867.026 640.557-872.948 649.749-882.128 662.224-887.288 675.223-887.288 688.211-887.288 700.686-882.127 709.879-872.948 719.085-863.756 724.259-851.281 724.259-838.282 724.259-825.283 719.085-812.806 709.879-803.616 704.443-798.113 697.745-794.003 690.392-791.613 683.366-789.354 675.92-788.698 668.606-789.696 653.425-791.731 640.083-800.766 632.558-814.095 631.1-816.669 627.83-817.575 625.243-816.117 622.669-814.646 621.776-811.376 623.234-808.803 628.447-799.597 636.011-791.954 645.151-786.623 654.291-781.304 664.665-778.494 675.249-778.494 691.099-778.494 706.306-784.784 717.52-795.999 728.734-807.213 735.038-822.433 735.024-838.283 735.024-854.146 728.721-869.34 717.52-880.554 706.305-891.768 691.098-898.071 675.249-898.071 662.104-898.058 649.327-893.725 638.902-885.74 628.462-877.756 620.951-866.555 617.523-853.869ZM665.731-830.493 665.731-830.48C665.731-828.116 667.109-825.962 669.263-824.978L686.072-815.286C688.961-813.632 692.638-814.617 694.319-817.493 695.96-820.382 694.962-824.058 692.086-825.726L677.812-833.96 677.812-862.548C677.812-865.883 675.094-868.602 671.758-868.602 668.409-868.602 665.704-865.883 665.704-862.548ZM620.834-760.303 620.821-760.29C617.486-760.29 614.78-757.585 614.78-754.236 614.78-750.9 617.486-748.182 620.821-748.182L729.631-748.182C732.98-748.182 735.685-750.9 735.685-754.236 735.685-757.585 732.98-760.29 729.631-760.29ZM614.781-728.708 614.781-728.695C614.781-725.346 617.486-722.641 620.821-722.641L729.631-722.641C732.98-722.641 735.685-725.346 735.685-728.695 735.685-732.03 732.98-734.735 729.631-734.735L620.821-734.735C617.486-734.735 614.781-732.03 614.781-728.695ZM-415.329 612.633C-415.329 615.982-412.624 618.687-409.288 618.687L-336.328 618.687C-332.979 618.687-330.274 615.982-330.274 612.633-330.274 609.297-332.979 606.592-336.328 606.592L-409.275 606.592C-412.61 606.592-415.315 609.297-415.315 612.633ZM-415.329 660.316-415.329 660.329C-415.329 663.665-412.624 666.37-409.288 666.37L-270.38 666.37C-267.045 666.37-264.327 663.665-264.327 660.329-264.327 656.981-267.045 654.275-270.38 654.275L-409.275 654.275C-412.61 654.275-415.315 656.981-415.315 660.329ZM-415.329 707.986C-415.329 711.334-412.624 714.04-409.288 714.04L-344.954 714.04C-341.619 714.04-338.9 711.335-338.9 707.986-338.9 704.65-341.619 701.932-344.954 701.932L-409.288 701.932C-412.624 701.932-415.329 704.65-415.329 707.986ZM-415.329 755.682C-415.329 759.018-412.624 761.736-409.288 761.736L-355.026 761.736C-351.677 761.736-348.972 759.018-348.972 755.682-348.972 752.334-351.677 749.629-355.026 749.629L-409.288 749.629C-412.624 749.629-415.329 752.334-415.329 755.682ZM-901.607 614.317C-904.956 614.317-907.661 617.022-907.661 620.371-907.661 623.707-904.956 626.425-901.607 626.425L-828.556 626.425C-825.207 626.425-822.502 623.707-822.502 620.371-822.502 617.022-825.207 614.317-828.556 614.317ZM-901.607 662.051C-904.956 662.051-907.661 664.756-907.661 668.105-907.661 671.44-904.956 674.159-901.607 674.159L-762.501 674.159C-759.152 674.159-756.447 671.44-756.447 668.105-756.447 664.756-759.152 662.051-762.501 662.051ZM-901.607 709.784C-904.956 709.784-907.661 712.503-907.661 715.838-907.661 719.187-904.956 721.892-901.607 721.892L-762.501 721.892C-759.152 721.892-756.447 719.187-756.447 715.838-756.447 712.503-759.152 709.784-762.501 709.784ZM-901.607 757.518-901.607 757.531C-904.956 757.531-907.661 760.236-907.661 763.572-907.661 766.92-904.956 769.626-901.607 769.626L-807.098 769.626C-803.762 769.626-801.044 766.921-801.044 763.572-801.044 760.236-803.762 757.531-807.098 757.531ZM-1380.99 606.555-1380.99 606.568C-1380.99 609.904-1378.29 612.609-1374.94 612.609L-1312.24 612.609C-1308.9 612.609-1306.18 609.904-1306.18 606.568-1306.18 603.219-1308.9 600.514-1312.24 600.514L-1374.94 600.514C-1378.29 600.514-1380.99 603.219-1380.99 606.568ZM-1380.99 647.528-1380.99 647.541C-1380.99 650.877-1378.29 653.595-1374.94 653.595L-1255.53 653.595C-1252.19 653.595-1249.49 650.877-1249.49 647.541-1249.49 644.193-1252.19 641.487-1255.53 641.487L-1374.94 641.487C-1378.29 641.487-1380.99 644.192-1380.99 647.541ZM-1380.99 688.511C-1380.99 691.86-1378.29 694.565-1374.94 694.565L-1255.53 694.565C-1252.19 694.565-1249.49 691.86-1249.49 688.511-1249.49 685.176-1252.19 682.47-1255.53 682.47L-1374.94 682.47C-1378.29 682.47-1380.99 685.176-1380.99 688.511ZM-1380.99 729.521-1380.99 729.534C-1380.99 732.87-1378.29 735.575-1374.94 735.575L-1255.53 735.575C-1252.19 735.575-1249.49 732.87-1249.49 729.534-1249.49 726.186-1252.19 723.481-1255.53 723.481L-1374.94 723.481C-1378.29 723.481-1380.99 726.186-1380.99 729.534ZM-1901.02 758.49-1901.02 758.503C-1901.02 761.839-1898.32 764.557-1894.97 764.557L-1786.16 764.557C-1782.82 764.557-1780.12 761.839-1780.12 758.503-1780.12 755.155-1782.82 752.449-1786.16 752.449L-1894.97 752.449C-1898.32 752.449-1901.02 755.155-1901.02 758.503ZM-1876.24 784.045C-1876.24 787.394-1873.54 790.099-1870.19 790.099L-1810.94 790.099C-1807.6 790.099-1804.89 787.394-1804.89 784.045-1804.89 780.709-1807.6 778.004-1810.94 778.004L-1870.19 778.004C-1873.54 778.004-1876.24 780.709-1876.24 784.045ZM-2314.35 658.752-2314.36 658.752C-2315.49 657.623-2317.03 656.979-2318.64 656.979-2320.24 656.979-2321.78 657.623-2322.92 658.752L-2338.59 674.419-2339.26 631.254C-2339.3 627.931-2342.03 625.266-2345.35 625.292-2346.95 625.305-2348.48 625.962-2349.59 627.104-2350.71 628.247-2351.33 629.796-2351.3 631.385L-2350.67 673.999-2365.9 658.752C-2367.03 657.623-2368.57 656.98-2370.18 656.98-2371.79 656.98-2373.32 657.623-2374.45 658.752-2375.59 659.895-2376.24 661.431-2376.24 663.033-2376.24 664.635-2375.59 666.185-2374.45 667.314L-2348.69 693.079-2348.7 693.079C-2347.56 694.208-2346.02 694.852-2344.42 694.852-2342.8 694.852-2341.27 694.208-2340.14 693.079L-2314.39 667.314C-2313.24 666.185-2312.61 664.635-2312.61 663.033-2312.61 661.431-2313.24 659.895-2314.39 658.752ZM-2311.09 702.021-2311.09 711.49-2377.59 711.49-2377.43 702.468-2377.45 702.481C-2377.41 699.159-2380.05 696.427-2383.37 696.362-2386.69 696.322-2389.42 698.975-2389.49 702.284L-2389.74 716.86C-2389.96 720.498-2387.47 723.584-2383.74 723.584L-2305.06 723.584C-2301.73 723.584-2299.01 720.879-2299.01 717.543L-2299.01 702.021C-2299.01 698.686-2301.73 695.98-2305.06 695.98-2308.41 695.98-2311.12 698.686-2311.12 702.021ZM-2405.26 758.502C-2405.26 761.838-2402.56 764.556-2399.22 764.556L-2290.38 764.556C-2287.05 764.556-2284.34 761.838-2284.34 758.502-2284.34 755.154-2287.05 752.448-2290.38 752.448L-2399.22 752.448C-2402.56 752.448-2405.26 755.154-2405.26 758.502ZM-2930.53 606.554C-2933.87 606.554-2936.59 609.259-2936.59 612.595-2936.59 615.944-2933.87 618.649-2930.53 618.649L-2857.57 618.649C-2854.24 618.649-2851.52 615.944-2851.52 612.595-2851.52 609.26-2854.24 606.554-2857.57 606.554ZM-2930.53 654.224-2930.53 654.211C-2933.87 654.211-2936.59 656.916-2936.59 660.265-2936.59 663.6-2933.87 666.319-2930.53 666.319L-2791.64 666.319C-2788.29 666.319-2785.59 663.6-2785.59 660.265-2785.59 656.916-2788.29 654.211-2791.64 654.211ZM-2936.59 707.945C-2936.59 711.28-2933.87 713.986-2930.53 713.986L-2866.19 713.986C-2862.85 713.986-2860.13 711.28-2860.13 707.945-2860.13 704.596-2862.85 701.891-2866.19 701.891L-2930.53 701.891C-2933.87 701.891-2936.59 704.596-2936.59 707.945ZM-2936.59 755.641-2936.59 755.628C-2936.59 758.977-2933.87 761.682-2930.53 761.682L-2876.26 761.682C-2872.91 761.682-2870.21 758.977-2870.21 755.628-2870.21 752.293-2872.91 749.574-2876.26 749.574L-2930.53 749.574C-2933.87 749.574-2936.59 752.293-2936.59 755.628ZM-388.209 254.269C-388.209 257.618-385.504 260.323-382.156 260.323L-273.346 260.323-273.359 260.323C-270.01 260.323-267.305 257.618-267.305 254.269-267.305 250.934-270.01 248.228-273.359 248.228L-382.155 248.228C-385.491 248.228-388.209 250.934-388.209 254.269ZM-363.43 279.824C-363.43 283.159-360.724 285.878-357.376 285.878L-298.125 285.878C-294.789 285.878-292.071 283.159-292.071 279.824-292.071 276.475-294.789 273.77-298.125 273.77L-357.376 273.77C-360.724 273.77-363.43 276.475-363.43 279.824ZM-918.321 203.33C-918.321 206.666-915.603 209.384-912.267 209.384L-858.113 209.384C-854.777 209.384-852.059 206.666-852.059 203.33-852.059 199.982-854.777 197.277-858.113 197.277L-912.267 197.277C-915.603 197.277-918.321 199.982-918.321 203.33ZM-918.321 250.893C-918.321 254.241-915.603 256.946-912.267 256.946L-858.113 256.946C-854.777 256.946-852.059 254.241-852.059 250.893-852.059 247.557-854.777 244.839-858.113 244.839L-912.267 244.839C-915.603 244.839-918.321 247.557-918.321 250.893ZM-918.321 108.176-918.321 108.189C-918.321 111.525-915.603 114.23-912.267 114.23L-839.478 114.23C-836.13 114.23-833.425 111.525-833.425 108.189-833.425 104.84-836.13 102.135-839.478 102.135L-912.267 102.135C-915.603 102.135-918.321 104.84-918.321 108.189ZM-918.321 155.751C-918.321 159.1-915.603 161.805-912.267 161.805L-773.686 161.805C-770.35 161.805-767.632 159.1-767.632 155.751-767.632 152.416-770.35 149.711-773.686 149.711L-912.267 149.711C-915.603 149.711-918.321 152.416-918.321 155.751ZM-1396.87 194.439-1396.85 194.452C-1398.25 195.24-1399.26 196.566-1399.66 198.115-1400.07 199.652-1399.85 201.306-1399.05 202.685-1397.37 205.548-1393.7 206.533-1390.81 204.891L-1297.06 150.76-1301.54 161.883C-1302.76 164.982-1301.25 168.475-1298.18 169.723-1295.08 170.957-1291.56 169.447-1290.33 166.361L-1279.47 139.309-1279.45 139.309C-1278.67 137.576-1278.73 135.58-1279.65 133.899-1280.56 132.231-1282.2 131.089-1284.09 130.813L-1313.26 126.663-1313.24 126.663C-1316.55 126.204-1319.6 128.488-1320.07 131.784-1320.53 135.081-1318.25 138.127-1314.95 138.6L-1303.09 140.307ZM-1397.46 219.35-1397.44 219.35C-1400.78 219.35-1403.5 222.068-1403.5 225.404L-1403.5 273.413C-1403.5 276.762-1400.78 279.467-1397.44 279.467L-1370.58 279.467C-1367.23 279.467-1364.52 276.762-1364.52 273.413L-1364.52 225.39C-1364.52 222.055-1367.23 219.336-1370.58 219.336ZM-1349.72 202.541-1349.71 202.541C-1353.05 202.541-1355.75 205.259-1355.75 208.595L-1355.75 273.376C-1355.75 276.725-1353.05 279.43-1349.71 279.43L-1322.88 279.43C-1319.55 279.43-1316.83 276.725-1316.83 273.376L-1316.83 208.622C-1316.83 205.286-1319.55 202.581-1322.88 202.581ZM-1275.16 182.607-1301.98 182.607-1301.96 182.607C-1305.3 182.607-1308.02 185.325-1308.02 188.661L-1308.02 273.374C-1308.02 276.722-1305.3 279.427-1301.96 279.427L-1275.13 279.427C-1271.8 279.427-1269.09 276.722-1269.09 273.374L-1269.09 188.661C-1269.09 185.325-1271.8 182.607-1275.13 182.607ZM-1920.89 106.678-1920.86 106.678C-1924.21 106.678-1926.91 109.397-1926.91 112.732-1926.91 116.081-1924.21 118.786-1920.86 118.786L-1844.35 118.786-1844.37 118.786C-1841.02 118.786-1838.31 116.081-1838.31 112.732-1838.31 109.397-1841.02 106.678-1844.37 106.678ZM-1920.89 156.671-1920.86 156.684C-1924.21 156.684-1926.91 159.389-1926.91 162.725-1926.91 166.073-1924.21 168.779-1920.86 168.779L-1760.22 168.779C-1756.88 168.779-1754.17 166.073-1754.17 162.725-1754.17 159.389-1756.88 156.684-1760.22 156.684ZM-1920.89 206.664-1920.86 206.664C-1924.21 206.664-1926.91 209.382-1926.91 212.717-1926.91 216.066-1924.21 218.771-1920.86 218.771L-1863.95 218.771-1863.96 218.771C-1860.61 218.771-1857.91 216.066-1857.91 212.717-1857.91 209.382-1860.61 206.664-1863.96 206.664ZM-1926.94 262.711-1926.91 262.711C-1926.91 266.059-1924.21 268.765-1920.86 268.765L-1863.95 268.765-1863.96 268.765C-1860.61 268.765-1857.91 266.059-1857.91 262.711-1857.91 259.375-1860.61 256.67-1863.96 256.67L-1920.87 256.67-1920.86 256.67C-1924.21 256.67-1926.91 259.375-1926.91 262.711ZM-1834.7 194.319-1834.7 262.724C-1834.7 266.073-1832 268.778-1828.65 268.778L-1760.2 268.778-1760.22 268.778C-1756.87 268.778-1754.16 266.073-1754.16 262.724L-1754.16 243.565C-1754.16 240.216-1756.87 237.511-1760.22 237.511-1763.55 237.511-1766.27 240.216-1766.27 243.565L-1766.27 256.67-1822.59 256.67-1822.59 200.374-1775.82 200.374C-1772.47 200.374-1769.77 197.656-1769.77 194.321-1769.77 190.972-1772.47 188.267-1775.82 188.267L-1828.65 188.267C-1831.98 188.267-1834.7 190.972-1834.7 194.321ZM-1799.93 244.813-1799.47 245.312-1799.48 245.299C-1797.33 247.518-1793.85 247.754-1791.4 245.85L-1756.53 218.287C-1753.93 216.225-1753.48 212.443-1755.51 209.83-1757.59 207.23-1761.36 206.796-1763.97 208.832L-1794.58 232.981-1805.4 221.793-1805.42 221.793C-1807.73 219.403-1811.55 219.324-1813.95 221.622-1816.34 223.933-1816.41 227.742-1814.12 230.145ZM-346.505-360.976-346.518-360.989C-346.518-357.64-343.8-354.935-340.464-354.935-337.116-354.935-334.41-357.64-334.41-360.989L-334.41-381.356C-334.41-384.705-337.116-387.41-340.464-387.41-343.8-387.41-346.518-384.705-346.518-381.356ZM-387.858-376.34-387.871-376.353C-389.539-379.216-393.203-380.214-396.092-378.572-398.954-376.918-399.952-373.28-398.35-370.391L-388.147-352.742C-386.479-349.866-382.828-348.868-379.939-350.51-377.05-352.164-376.052-355.854-377.707-358.743ZM-301.004-350.47-301.017-350.483C-298.128-348.842-294.438-349.84-292.783-352.742L-282.606-370.391-282.619-370.391C-281.818-371.77-281.608-373.412-282.028-374.948-282.435-376.498-283.46-377.798-284.839-378.599-287.728-380.227-291.391-379.242-293.059-376.366L-303.236-358.743C-304.891-355.854-303.893-352.177-301.017-350.51ZM-403.537-250.011C-403.537-246.662-400.832-243.957-397.483-243.957L-288.66-243.957C-285.311-243.957-282.606-246.662-282.606-250.011-282.606-253.346-285.311-256.065-288.66-256.065L-397.497-256.065C-400.845-256.065-403.551-253.346-403.551-250.011ZM-378.757-224.456C-378.757-221.121-376.052-218.402-372.704-218.402L-313.453-218.402C-310.117-218.402-307.399-221.121-307.399-224.456-307.399-227.805-310.117-230.51-313.453-230.51L-372.704-230.51C-376.052-230.51-378.757-227.805-378.757-224.456ZM-793.598-355.42-840.676-355.42C-844.012-355.42-846.717-352.715-846.717-349.379-846.717-346.031-844.012-343.325-840.676-343.325L-799.666-343.325-799.653-247.882-895.083-247.882-895.083-288.431C-895.083-291.767-897.788-294.485-901.137-294.485-904.472-294.485-907.191-291.767-907.191-288.431L-907.191-241.8C-907.191-238.452-904.473-235.747-901.137-235.747L-793.601-235.747C-790.266-235.747-787.547-238.452-787.547-241.8L-787.547-349.363C-787.547-352.699-790.266-355.404-793.601-355.404ZM-1361.3-265.389-1361.31-265.402C-1361.31-262.053-1358.59-259.348-1355.26-259.348L-1263.93-259.348C-1260.59-259.348-1257.88-262.053-1257.88-265.402-1257.88-268.737-1260.59-271.443-1263.93-271.443L-1355.23-271.443C-1358.58-271.443-1361.28-268.738-1361.28-265.402ZM-1361.3-234.949-1361.31-234.962C-1361.31-231.614-1358.59-228.908-1355.26-228.908L-1263.93-228.908C-1260.59-228.908-1257.88-231.614-1257.88-234.962-1257.88-238.298-1260.59-241.016-1263.93-241.016L-1355.23-241.016C-1358.58-241.016-1361.28-238.298-1361.28-234.962ZM-1355.24-343.443-1263.93-343.443-1263.93-343.456C-1260.59-343.456-1257.88-346.161-1257.88-349.51-1257.88-352.846-1260.59-355.564-1263.93-355.564L-1355.23-355.564C-1358.58-355.564-1361.28-352.846-1361.28-349.51-1361.28-346.161-1358.58-343.456-1355.23-343.456ZM-1355.24-312.99-1263.93-312.99-1263.93-313.003C-1260.59-313.003-1257.88-315.709-1257.88-319.057-1257.88-322.393-1260.59-325.111-1263.93-325.111L-1355.23-325.111C-1358.58-325.111-1361.28-322.393-1361.28-319.057-1361.28-315.709-1358.58-313.003-1355.23-313.003ZM-1916.32-249.998-1916.33-250.011C-1916.33-246.675-1913.63-243.957-1910.29-243.957L-1801.46-243.957C-1798.12-243.957-1795.42-246.675-1795.42-250.011-1795.42-253.359-1798.12-256.065-1801.46-256.065L-1910.29-256.065C-1913.63-256.065-1916.33-253.36-1916.33-250.011ZM-1891.54-224.443-1891.57-224.469C-1891.57-221.121-1888.85-218.415-1885.51-218.415L-1826.26-218.415C-1822.91-218.415-1820.21-221.121-1820.21-224.469-1820.21-227.805-1822.91-230.51-1826.26-230.51L-1885.51-230.51C-1888.85-230.51-1891.57-227.805-1891.57-224.469ZM-2467.24-386.228-2467.27-386.254C-2467.27-382.905-2464.56-380.2-2461.21-380.2L-2391.75-380.2C-2388.41-380.2-2385.71-382.905-2385.71-386.254-2385.71-389.589-2388.41-392.308-2391.75-392.308L-2461.21-392.308C-2464.56-392.308-2467.27-389.589-2467.27-386.254ZM-2467.24-340.83-2467.27-340.857C-2467.27-337.508-2464.56-334.803-2461.21-334.803L-2328.95-334.803C-2325.61-334.803-2322.91-337.508-2322.91-340.857-2322.91-344.192-2325.61-346.91-2328.95-346.91L-2461.21-346.91C-2464.56-346.91-2467.27-344.192-2467.27-340.857ZM-2467.24-295.433-2467.27-295.459C-2467.27-292.111-2464.56-289.406-2461.21-289.406L-2328.95-289.406C-2325.61-289.406-2322.91-292.111-2322.91-295.459-2322.91-298.795-2325.61-301.513-2328.95-301.513L-2461.21-301.513C-2464.56-301.513-2467.27-298.795-2467.27-295.459ZM-2834.75-291.205-2834.79-291.231C-2831.44-291.231-2828.73-293.936-2828.73-297.285-2828.73-300.62-2831.44-303.326-2834.79-303.326L-2894.04-303.326C-2897.38-303.326-2900.09-300.62-2900.09-297.285-2900.09-293.936-2897.38-291.231-2894.04-291.231ZM-2809.97-316.76-2810.01-316.773C-2806.66-316.773-2803.96-319.491-2803.96-322.826-2803.96-326.175-2806.66-328.88-2810.01-328.88L-2918.82-328.88C-2922.15-328.88-2924.86-326.175-2924.86-322.826-2924.86-319.491-2922.15-316.773-2918.82-316.773ZM-2824.62-344.993-2824.66-345.019C-2821.33-345.019-2818.61-347.724-2818.61-351.073L-2818.61-366.595-2818.61-366.582C-2818.61-369.93-2821.33-372.636-2824.66-372.636-2828.01-372.636-2830.72-369.93-2830.72-366.582L-2830.72-357.114-2897.22-357.114-2897.05-366.122C-2897.01-369.445-2899.66-372.176-2902.98-372.242-2906.3-372.281-2909.04-369.628-2909.1-366.319L-2909.35-351.73C-2909.57-348.079-2907.07-345.006-2903.3-345.006ZM-2833.92-409.824-2833.96-409.851C-2835.1-410.98-2836.64-411.623-2838.24-411.623-2839.84-411.623-2841.39-410.98-2842.52-409.851L-2858.19-394.184-2858.82-437.363C-2858.87-440.685-2861.59-443.351-2864.91-443.324-2868.25-443.272-2870.91-440.553-2870.89-437.218L-2870.22-394.591-2885.45-409.837-2885.44-409.85C-2886.57-410.98-2888.12-411.623-2889.72-411.623-2891.32-411.623-2892.86-410.98-2894-409.85-2895.13-408.721-2895.77-407.171-2895.77-405.569-2895.77-403.967-2895.13-402.431-2894-401.289L-2868.25-375.524C-2865.88-373.173-2862.05-373.173-2859.7-375.524L-2833.95-401.289C-2832.8-402.431-2832.17-403.967-2832.17-405.569-2832.17-407.172-2832.8-408.721-2833.95-409.85ZM-393.69-754.236-393.73-754.263C-393.73-750.927-391.025-748.209-387.689-748.209L-278.879-748.209C-275.53-748.209-272.825-750.927-272.825-754.263-272.825-757.611-275.53-760.316-278.879-760.316L-387.649-760.316C-390.997-760.316-393.703-757.611-393.703-754.263ZM-393.69-728.682-393.73-728.721C-393.73-725.372-391.025-722.667-387.689-722.667L-278.879-722.667C-275.53-722.667-272.825-725.372-272.825-728.721-272.825-732.056-275.53-734.762-278.879-734.762L-387.649-734.762C-390.997-734.762-393.703-732.057-393.703-728.721ZM-910.325-901.812-910.365-901.851C-913.713-901.851-916.418-899.133-916.418-895.798-916.418-892.449-913.713-889.744-910.365-889.744L-833.858-889.744-833.871-889.744C-830.522-889.744-827.817-892.449-827.817-895.798-827.817-899.133-830.522-901.851-833.871-901.851ZM-916.379-845.751-916.418-845.791C-916.418-842.455-913.713-839.737-910.365-839.737L-764.72-839.737-764.733-839.737C-761.384-839.737-758.679-842.455-758.679-845.791-758.679-849.139-761.384-851.845-764.733-851.845L-910.378-851.845-910.365-851.845C-913.713-851.845-916.418-849.139-916.418-845.791ZM-916.379-795.759-916.418-795.798C-916.418-792.463-913.713-789.757-910.365-789.757L-853.45-789.757-853.463-789.757C-850.114-789.757-847.409-792.463-847.409-795.798-847.409-799.147-850.114-801.852-853.463-801.852L-910.378-801.852-910.365-801.852C-913.713-801.852-916.418-799.147-916.418-795.798ZM-916.379-745.766-916.418-745.805C-916.418-742.47-913.713-739.752-910.365-739.752L-853.45-739.752-853.463-739.752C-850.114-739.752-847.409-742.47-847.409-745.805-847.409-749.154-850.114-751.859-853.463-751.859L-910.378-751.859-910.365-751.859C-913.713-751.859-916.418-749.154-916.418-745.805ZM-816.262-800.408-816.315-800.447C-819.65-800.447-822.356-797.742-822.356-794.394L-822.146-784.374C-822.093-781.038-819.362-778.386-816.039-778.425-812.704-778.491-810.051-781.235-810.104-784.558L-810.169-788.327-796.565-788.327-796.565-751.845-802.868-751.845-802.868-751.858C-806.204-751.858-808.909-749.153-808.909-745.804-808.909-742.469-806.204-739.75-802.868-739.75L-778.141-739.75C-774.805-739.75-772.1-742.469-772.1-745.804-772.1-749.153-774.805-751.858-778.141-751.858L-784.444-751.858-784.444-788.34-770.761-788.34-770.761-784.229-770.774-784.216C-770.774-780.881-768.055-778.162-764.72-778.162-761.371-778.162-758.666-780.881-758.666-784.216L-758.666-794.393C-758.666-797.742-761.371-800.447-764.72-800.447ZM-1402.22-728.668-1402.27-728.721C-1402.27-725.372-1399.56-722.667-1396.22-722.667L-1287.39-722.667C-1284.04-722.667-1281.34-725.372-1281.34-728.721-1281.34-732.056-1284.04-734.761-1287.39-734.761L-1396.22-734.761C-1399.56-734.761-1402.27-732.056-1402.27-728.721ZM-1402.22-754.223-1402.27-754.262C-1402.27-750.927-1399.56-748.208-1396.22-748.208L-1287.39-748.208C-1284.04-748.208-1281.34-750.927-1281.34-754.262-1281.34-757.611-1284.04-760.316-1287.39-760.316L-1396.22-760.316C-1399.56-760.316-1402.27-757.611-1402.27-754.262ZM-1924.9-895.733-1924.95-895.772C-1924.95-892.437-1922.24-889.718-1918.9-889.718L-1842.42-889.718C-1839.07-889.718-1836.37-892.436-1836.37-895.772-1836.37-899.121-1839.07-901.826-1842.42-901.826L-1918.9-901.826C-1922.24-901.826-1924.95-899.121-1924.95-895.772ZM-1924.9-845.74-1924.95-845.792C-1924.95-842.444-1922.24-839.739-1918.9-839.739L-1773.26-839.739C-1769.92-839.739-1767.2-842.444-1767.2-845.792-1767.2-849.128-1769.92-851.833-1773.26-851.833L-1918.9-851.833C-1922.24-851.833-1924.95-849.128-1924.95-845.792ZM-1924.9-795.747-1924.95-795.8C-1924.95-792.451-1922.24-789.746-1918.9-789.746L-1773.26-789.746C-1769.92-789.746-1767.2-792.451-1767.2-795.8-1767.2-799.135-1769.92-801.854-1773.26-801.854L-1918.9-801.854C-1922.24-801.854-1924.95-799.135-1924.95-795.8ZM-1924.9-745.755-1924.95-745.807C-1924.95-742.458-1922.24-739.753-1918.9-739.753L-1773.26-739.753C-1769.92-739.753-1767.2-742.458-1767.2-745.807-1767.2-749.143-1769.92-751.848-1773.26-751.848L-1918.9-751.848C-1922.24-751.848-1924.95-749.143-1924.95-745.807ZM-2410.74-754.224-2410.78-754.264C-2410.78-750.928-2408.08-748.21-2404.74-748.21L-2295.93-748.21C-2292.58-748.21-2289.88-750.928-2289.88-754.264-2289.88-757.613-2292.58-760.318-2295.93-760.318L-2404.7-760.318C-2408.04-760.318-2410.74-757.613-2410.74-754.264ZM-2410.74-728.67-2410.78-728.722C-2410.78-725.374-2408.08-722.668-2404.74-722.668L-2295.93-722.668C-2292.58-722.668-2289.88-725.374-2289.88-728.722-2289.88-732.058-2292.58-734.763-2295.93-734.763L-2404.7-734.763C-2408.04-734.763-2410.74-732.058-2410.74-728.722Z" fill-rule="evenodd" transform="matrix(1.00056 0 0 1 622.818 115.25)"/><text font-family="Arial,Arial_MSFontService,sans-serif" font-weight="700" font-size="5" transform="matrix(3.36364 0 0 3.36176 622.818 510)">Created by Syamcreative</text><text font-family="Arial,Arial_MSFontService,sans-serif" font-weight="700" font-size="5" transform="matrix(3.36364 0 0 3.36176 622.818 527)">from Noun Project</text></g></svg>