<svg width="380" height="371" xmlns="http://www.w3.org/2000/svg" xmlns:xlink="http://www.w3.org/1999/xlink" xml:space="preserve" overflow="hidden"><defs><clipPath id="clip0"><rect x="603" y="110" width="380" height="371"/></clipPath></defs><g clip-path="url(#clip0)" transform="translate(-603 -110)"><path d="M130.478 118.617C123.927 118.617 118.617 123.927 118.617 130.478L118.617 249.095C118.617 255.646 123.927 260.957 130.478 260.957L249.095 260.957C255.646 260.957 260.957 255.646 260.957 249.095L260.957 130.478C260.957 123.927 255.646 118.617 249.095 118.617L130.478 118.617Z" transform="matrix(1.00112 0 0 1 603 110)"/><path d="M118.617 23.7234C125.168 23.7234 130.478 29.0341 130.478 35.585L130.478 71.1701 177.925 71.1701 177.925 35.585C177.925 29.0341 183.236 23.7234 189.787 23.7234 196.338 23.7234 201.648 29.0341 201.648 35.585L201.648 71.1701 249.095 71.1701 249.095 35.585C249.095 29.0341 254.406 23.7234 260.957 23.7234 267.508 23.7234 272.819 29.0341 272.819 35.585L272.819 71.1701C292.472 71.1701 308.404 87.1021 308.404 106.755L343.989 106.755C350.54 106.755 355.85 112.066 355.85 118.617 355.85 125.168 350.54 130.478 343.989 130.478L308.404 130.478 308.404 177.925 343.989 177.925C350.54 177.925 355.85 183.236 355.85 189.787 355.85 196.338 350.54 201.648 343.989 201.648L308.404 201.648 308.404 249.095 343.989 249.095C350.54 249.095 355.85 254.406 355.85 260.957 355.85 267.508 350.54 272.819 343.989 272.819L308.404 272.819C308.404 292.472 292.472 308.404 272.819 308.404L272.819 343.989C272.819 350.54 267.508 355.85 260.957 355.85 254.406 355.85 249.095 350.54 249.095 343.989L249.095 308.404 201.648 308.404 201.648 343.989C201.648 350.54 196.338 355.85 189.787 355.85 183.236 355.85 177.925 350.54 177.925 343.989L177.925 308.404 130.478 308.404 130.478 343.989C130.478 350.54 125.168 355.85 118.617 355.85 112.066 355.85 106.755 350.54 106.755 343.989L106.755 308.404C87.1021 308.404 71.1701 292.472 71.1701 272.819L35.585 272.819C29.0341 272.819 23.7234 267.508 23.7234 260.957 23.7234 254.406 29.0341 249.095 35.585 249.095L71.1701 249.095 71.1701 201.648 35.585 201.648C29.0341 201.648 23.7234 196.338 23.7234 189.787 23.7234 183.236 29.0341 177.925 35.585 177.925L71.1701 177.925 71.1701 130.478 35.585 130.478C29.0341 130.478 23.7234 125.168 23.7234 118.617 23.7234 112.066 29.0341 106.755 35.585 106.755L71.1701 106.755C71.1701 87.1021 87.1021 71.1701 106.755 71.1701L106.755 35.585C106.755 29.0341 112.066 23.7234 118.617 23.7234ZM94.8934 272.819C94.8934 279.37 100.204 284.68 106.755 284.68L272.819 284.68C279.37 284.68 284.68 279.37 284.68 272.819L284.68 106.755C284.68 100.204 279.37 94.8934 272.819 94.8934L106.755 94.8934C100.204 94.8934 94.8934 100.204 94.8934 106.755L94.8934 272.819Z" fill-rule="evenodd" transform="matrix(1.00112 0 0 1 603 110)"/><text font-family="Arial,Arial_MSFontService,sans-serif" font-weight="700" font-size="5" transform="matrix(11.875 0 0 11.8617 603 667)">Created by HideMaru</text><text font-family="Arial,Arial_MSFontService,sans-serif" font-weight="700" font-size="5" transform="matrix(11.875 0 0 11.8617 603 727)">from the Noun Project</text></g></svg>