<svg width="332" height="332" xmlns="http://www.w3.org/2000/svg" xmlns:xlink="http://www.w3.org/1999/xlink" xml:space="preserve" overflow="hidden"><defs><clipPath id="clip0"><rect x="617" y="129" width="332" height="332"/></clipPath></defs><g clip-path="url(#clip0)" transform="translate(-617 -129)"><path d="M106.121 245.716C109.416 256.036 113.371 265.522 117.856 273.963 129.87 296.534 145.587 311.457 162.802 314.515L162.802 234.298C143.578 234.973 125.335 238.637 108.769 244.71 107.883 245.041 106.996 245.372 106.123 245.716ZM94.9943 175.792C95.4573 196.272 98.1167 215.643 102.536 233.093 103.118 232.868 103.7 232.656 104.282 232.444 122.276 225.843 142.04 221.9 162.813 221.212L162.813 175.806 94.995 175.806ZM102.523 105.589C98.1167 122.987 95.4708 142.304 94.9943 162.704L162.812 162.704 162.812 117.481C142.04 116.793 122.273 112.837 104.281 106.249 103.699 106.037 103.117 105.812 102.535 105.6ZM162.801 24.1696C145.601 27.2126 129.87 42.1365 117.855 64.722 113.37 73.1631 109.414 82.6494 106.12 92.9688 106.993 93.3128 107.88 93.6436 108.766 93.9611 125.331 100.034 143.574 103.699 162.799 104.373ZM232.58 92.9661C229.285 82.6463 225.329 73.16 220.844 64.7193 208.831 42.1481 193.113 27.2253 175.899 24.1669L175.899 104.371C195.123 103.696 213.366 100.031 229.932 93.9585 230.818 93.6278 231.705 93.297 232.578 92.9662ZM243.707 162.704C243.23 142.303 240.571 122.985 236.178 105.589 235.596 105.814 235.014 106.026 234.432 106.238 216.439 112.84 196.674 116.782 175.901 117.47L175.901 162.693 243.719 162.693ZM236.298 233.144C240.637 215.693 243.257 196.296 243.72 175.788L175.902 175.788 175.902 221.194C196.674 221.882 216.441 225.838 234.433 232.427 235.054 232.652 235.676 232.89 236.298 233.115ZM175.901 314.523C199.941 310.421 220.711 283.947 232.738 245.777 231.812 245.42 230.872 245.063 229.933 244.719 213.369 238.646 195.125 234.981 175.9 234.306ZM248.352 100.441C253.313 119.387 256.303 140.462 256.806 162.704L314.954 162.704C313.525 130.859 301.882 101.671 283.214 78.3479 272.947 86.961 261.225 94.4229 248.365 100.443ZM211.572 29.8055C234.845 36.8308 255.658 49.532 272.42 66.2834 273.161 67.0243 273.888 67.7652 274.603 68.5194 265.738 75.9284 255.657 82.3982 244.636 87.7433 241.169 77.1325 237.068 67.3553 232.397 58.5833 226.338 47.1918 219.326 37.4674 211.573 29.8071ZM94.0845 87.74C83.0504 82.395 72.9819 75.9252 64.1174 68.5161 64.8451 67.762 65.5728 67.0211 66.3005 66.2802 83.0501 49.5305 103.876 36.8293 127.148 29.8023 119.395 37.4626 112.382 47.187 106.323 58.5785 101.666 67.3501 97.5515 77.1277 94.085 87.7384ZM81.8991 162.704C82.4019 140.464 85.3786 119.388 90.3534 100.441 77.4933 94.4215 65.7713 86.9593 55.5047 78.3465 36.8366 101.672 25.1938 130.858 23.7648 162.703L81.9127 162.703ZM90.3534 238.238C85.3654 219.239 82.3886 198.095 81.8991 175.788L23.7513 175.788C25.1405 207.713 36.8098 236.954 55.5043 260.331 65.771 251.718 77.4933 244.269 90.3531 238.236ZM127.133 308.873C102.842 301.53 81.2221 288.022 64.1178 270.16 72.9822 262.751 83.0639 256.281 94.0849 250.936 97.5511 261.547 101.653 271.324 106.323 280.096 112.383 291.488 119.395 301.212 127.134 308.872ZM244.475 250.858C255.562 256.216 265.683 262.712 274.587 270.147 257.348 288.141 235.546 301.715 211.027 309.02 224.84 295.419 236.403 275.256 244.46 250.845ZM256.793 175.788C256.303 198.081 253.286 219.182 248.246 238.197 261.146 244.23 272.907 251.705 283.2 260.332 301.907 236.967 313.563 207.715 314.953 175.789Z" fill-rule="evenodd" transform="matrix(1 0 0 1.00211 609.804 127.38)"/><text font-family="Arial,Arial_MSFontService,sans-serif" font-weight="700" font-size="5" transform="matrix(3.38699 0 0 3.39414 609.804 526)">Created by Happy Girl</text><text font-family="Arial,Arial_MSFontService,sans-serif" font-weight="700" font-size="5" transform="matrix(3.38699 0 0 3.39414 609.804 543)">from Noun Project</text></g></svg>