<svg width="372" height="324" xmlns="http://www.w3.org/2000/svg" xmlns:xlink="http://www.w3.org/1999/xlink" xml:space="preserve" overflow="hidden"><defs><clipPath id="clip0"><rect x="603" y="109" width="372" height="324"/></clipPath></defs><g clip-path="url(#clip0)" transform="translate(-603 -109)"><path d="M274.634 278.722C267.201 297.303 254.566 309.567 200.68 309.567L200.68 327.777C263.485 327.777 283.553 311.797 294.702 278.35L274.634 278.35Z" transform="matrix(1.001 0 0 1 603 81.6202)"/><path d="M310.31 141.219C315.885 141.219 321.459 144.564 324.06 149.766 342.642 185.071 343.013 222.606 324.06 261.998 321.459 267.573 315.885 271.289 309.939 271.289L272.776 271.289C265.715 271.289 260.14 265.715 260.14 258.654L260.14 154.969C260.14 147.908 266.086 141.219 273.519 141.219L310.31 141.219Z" transform="matrix(1.001 0 0 1 603 81.6202)"/><path d="M185.814 44.5955C131.185 44.5955 86.5895 85.4746 79.5286 133.786L99.2249 133.786C105.543 92.9072 141.962 63.1769 185.814 63.1769 229.667 63.1769 266.086 92.9072 272.404 133.786L292.1 133.786C285.039 85.4746 240.444 44.5955 185.814 44.5955Z" transform="matrix(1.001 0 0 1 603 81.6202)"/><path d="M61.3188 141.219C55.7443 141.219 50.1699 144.564 47.5685 149.766 28.9871 185.071 28.6154 222.606 47.5685 261.998 50.1699 267.573 55.7443 271.289 61.6904 271.289L99.2249 271.289C106.286 271.289 111.86 265.715 111.86 258.654L111.86 154.969C111.86 147.908 105.914 141.219 98.4817 141.219L61.3188 141.219Z" transform="matrix(1.001 0 0 1 603 81.6202)"/><text font-family="Arial,Arial_MSFontService,sans-serif" font-weight="700" font-size="5" transform="matrix(3.72 0 0 3.71629 603 509)">Created by Scott Rogers</text><text font-family="Arial,Arial_MSFontService,sans-serif" font-weight="700" font-size="5" transform="matrix(3.72 0 0 3.71629 603 528)">from the Noun Project</text></g></svg>