<svg width="353" height="334" xmlns="http://www.w3.org/2000/svg" xmlns:xlink="http://www.w3.org/1999/xlink" xml:space="preserve" overflow="hidden"><defs><clipPath id="clip0"><rect x="609" y="81" width="353" height="334"/></clipPath></defs><g clip-path="url(#clip0)" transform="translate(-609 -81)"><path d="M21.6614 162.913 181.012 162.913 181.538 152.721 249.555 112.746 268.133 123.664 268.133 104.974C268.133 101.501 265.3 98.6683 261.828 98.6683L21.6593 98.6808C18.1871 98.6808 15.3541 101.514 15.3541 104.986L15.3541 156.62C15.3541 160.093 18.1871 162.926 21.6593 162.926ZM182.353 119.577C188.546 119.577 193.573 124.604 193.573 130.796 193.573 136.989 188.546 142.016 182.353 142.016 176.161 142.016 171.134 136.989 171.134 130.796 171.134 124.604 176.161 119.577 182.353 119.577ZM48.3225 124.491 139.368 124.491C142.852 124.491 145.673 127.311 145.673 130.796 145.673 134.281 142.852 137.101 139.368 137.101L48.3225 137.101C44.8377 137.101 42.0173 134.281 42.0173 130.796 42.0173 127.311 44.8378 124.491 48.3225 124.491ZM21.6594 86.0813 261.841 86.0813C265.313 86.0813 268.146 83.2483 268.146 79.7761L268.146 21.8359C268.146 18.3637 265.313 15.5307 261.841 15.5307L21.6594 15.5433C18.1872 15.5433 15.3542 18.3763 15.3542 21.8485L15.3542 79.7758C15.3542 83.248 18.1872 86.081 21.6594 86.081ZM230.488 39.6008C236.68 39.6008 241.707 44.6275 241.707 50.8201 241.707 57.0127 236.68 62.0394 230.488 62.0394 224.295 62.0394 219.269 57.0127 219.269 50.8201 219.269 44.6275 224.295 39.6008 230.488 39.6008ZM182.351 39.6008C188.544 39.6008 193.571 44.6275 193.571 50.8201 193.571 57.0127 188.544 62.0394 182.351 62.0394 176.159 62.0394 171.132 57.0127 171.132 50.8201 171.132 44.6275 176.159 39.6008 182.351 39.6008ZM48.3206 44.5146 139.366 44.5146C142.85 44.5146 145.671 47.3351 145.671 50.8198 145.671 54.3046 142.85 57.125 139.366 57.125L48.3206 57.1125C44.8358 57.1125 42.0153 54.292 42.0153 50.8073 42.0153 47.3225 44.8358 44.502 48.3206 44.502ZM56.3934 282.6 99.9921 282.6 99.9921 298.345 56.3934 298.345C52.0434 298.345 48.5211 294.822 48.5211 290.472 48.5211 286.123 52.0438 282.6 56.3934 282.6ZM234.986 290.472C234.986 294.822 231.463 298.345 227.113 298.345L183.515 298.345 183.515 282.6 227.113 282.6C231.463 282.6 234.986 286.123 234.986 290.472ZM181.371 175.523 21.6549 175.523C18.1827 175.523 15.3497 178.356 15.3497 181.828L15.3497 239.768C15.3497 243.24 18.1827 246.073 21.6549 246.073L213.234 246.073C195.183 226.906 183.6 202.388 181.369 175.538ZM139.352 217.09 48.3193 217.09C44.8345 217.09 42.0141 214.27 42.0141 210.785 42.0141 207.3 44.8346 204.48 48.3193 204.48L139.364 204.48C142.849 204.48 145.67 207.3 145.67 210.785 145.67 214.27 142.849 217.09 139.364 217.09ZM133.874 268.686 133.874 252.941 149.618 252.941 149.618 268.686ZM112.588 275.568 170.904 275.568 170.904 305.365 112.588 305.365ZM305.371 160.179 249.549 127.372 193.727 160.179C191.383 201.582 214.122 238.625 249.549 258.659 284.974 238.627 307.714 201.598 305.371 160.179ZM275.7 175.647 244.236 206.46C241.052 209.731 236.087 208.842 234.094 205.231L222.286 183.745C220.618 180.699 221.722 176.876 224.768 175.209 227.814 173.541 231.637 174.645 233.305 177.691L241.127 191.906 266.875 166.684C269.344 164.253 273.33 164.29 275.762 166.76 278.194 169.229 278.156 173.215 275.687 175.647Z" fill-rule="evenodd" transform="matrix(1 0 0 1.00166 625.045 84.4777)"/><text font-family="Arial,Arial_MSFontService,sans-serif" font-weight="700" font-size="5" transform="matrix(3.20909 0 0 3.21442 625.045 462)">Created by Resa Valen</text><text font-family="Arial,Arial_MSFontService,sans-serif" font-weight="700" font-size="5" transform="matrix(3.20909 0 0 3.21442 625.045 478)">from Noun Project</text></g></svg>