<svg width="453" height="407" xmlns="http://www.w3.org/2000/svg" xmlns:xlink="http://www.w3.org/1999/xlink" xml:space="preserve" overflow="hidden"><defs><clipPath id="clip0"><rect x="550" y="90" width="453" height="407"/></clipPath></defs><g clip-path="url(#clip0)" transform="translate(-550 -90)"><path d="M129.85 50.5301C97.5647 52.1066 64.4743 44.0312 45.6212 29.5208 45.2834 29.2473 44.8812 29.0864 44.463 29.0221 43.8034 28.9417 43.1278 29.1508 42.6452 29.6012 42.1465 30.0355 41.8569 30.679 41.873 31.3386 41.8248 37.9664 41.7765 44.4332 41.7121 50.8518 40.4252 196.112 39.3635 319.131 205.908 391.005 372.452 319.131 371.393 196.117 370.104 50.8353 370.056 44.4167 369.992 37.9499 369.943 31.3221 369.927 30.6625 369.622 30.0513 369.139 29.6169 368.656 29.1826 368.013 28.9574 367.353 29.0056 366.935 29.0539 366.533 29.2308 366.195 29.5043 347.358 44.0143 314.253 52.0901 281.966 50.5136 253.396 49.1141 225.197 40.186 207.596 21.5253 207.387 21.284 207.129 21.1071 206.84 20.9784 206.244 20.7532 205.569 20.7532 204.974 20.9784 204.684 21.1071 204.427 21.284 204.218 21.5253 186.619 40.1856 158.419 49.1138 129.847 50.5136ZM67.0316 151.714C65.1817 125.364 65.0691 98.0827 65.3425 71.5699 65.3586 71.1194 65.4069 70.669 65.5356 70.2347 66.2916 67.4678 69.139 65.8431 71.906 66.5991 82.2978 69.366 92.8832 71.3931 103.564 72.664 115.276 74.0796 127.067 74.7874 138.859 74.7874 150.28 74.7874 161.621 73.0661 172.512 69.6718 183.322 66.3096 193.553 61.3069 202.867 54.8558 204.653 53.5527 207.066 53.5367 208.884 54.7914 218.198 61.2743 228.461 66.2935 239.303 69.6717 250.194 73.066 261.535 74.7873 272.957 74.7873 284.748 74.7873 296.54 74.0794 308.251 72.6639 318.884 71.4091 329.421 69.3822 339.781 66.6315 340.247 66.4868 340.746 66.4224 341.228 66.4063 344.108 66.3902 346.44 68.6906 346.472 71.5701 346.746 98.0809 346.633 125.349 344.783 151.714 343.335 177.453 339.217 202.998 332.493 227.9 323.983 258.915 307.88 287.342 285.632 310.569 263.288 332.881 237.017 350.882 208.144 363.64L208.112 363.64C206.713 364.283 205.104 364.283 203.705 363.64 174.813 350.883 148.529 332.898 126.184 310.569 103.936 287.34 87.8334 258.914 79.3232 227.884 72.599 202.982 68.4808 177.453 67.0329 151.698ZM75.6864 78.2784 75.6864 78.2623C84.4697 80.3375 93.3658 81.914 102.326 82.9916 114.455 84.4716 126.665 85.2116 138.875 85.2116 151.342 85.2116 163.729 83.3133 175.633 79.5973 186.331 76.2673 196.513 71.4733 205.908 65.3447 215.303 71.4737 225.502 76.2673 236.2 79.5973 248.104 83.3133 260.49 85.2116 272.958 85.2116 285.167 85.2116 297.377 84.4716 309.506 82.9916 318.467 81.9138 327.362 80.3373 336.146 78.2623 336.323 102.328 336.082 126.939 334.393 151.006L334.393 151.022C332.993 176.037 329.004 200.844 322.473 225.038 314.429 254.428 299.195 281.342 278.136 303.366 257.288 324.23 232.803 341.121 205.908 353.233 179.011 341.12 154.525 324.229 133.679 303.366 112.621 281.343 97.3873 254.43 89.3424 225.038 82.8114 200.844 78.8217 176.04 77.4223 151.022 75.7332 126.956 75.508 102.329 75.6689 78.2784ZM254.91 160C270.16 175.25 277.431 196.709 274.632 218.074 271.817 239.437 259.221 258.275 240.561 269.053 221.9 279.831 199.284 281.311 179.369 273.059 159.47 264.806 144.525 247.771 138.943 226.956 133.377 206.14 137.801 183.925 150.911 166.822 164.038 149.722 184.355 139.7 205.91 139.7 224.296 139.684 241.928 146.987 254.908 160.001ZM205.912 129.29C230.701 129.29 254.074 140.808 269.163 160.482 284.252 180.14 289.351 205.716 282.933 229.655 276.514 253.608 259.334 273.201 236.426 282.693 213.519 292.169 187.507 290.463 166.047 278.077 144.571 265.674 130.093 244.005 126.86 219.425 123.626 194.845 131.991 170.168 149.526 152.633 164.47 137.656 184.756 129.259 205.908 129.291ZM172.451 215.274C171.374 214.405 170.698 213.15 170.553 211.767 170.408 210.4 170.81 209.032 171.679 207.954 172.564 206.877 173.819 206.201 175.202 206.072 176.57 205.928 177.937 206.346 179.015 207.214L196.469 221.355 232.455 186.028C234.498 184.018 237.779 184.034 239.806 186.093 241.817 188.136 241.785 191.418 239.742 193.445L200.442 232.02C198.56 233.87 195.584 234.015 193.525 232.342Z" fill-rule="evenodd" transform="matrix(1 0 0 1.00224 570.591 91.1891)"/><text font-family="Arial,Arial_MSFontService,sans-serif" font-weight="700" font-size="5" transform="matrix(4.11818 0 0 4.1274 570.591 576)">Created by wahyu eko prasetyo</text><text font-family="Arial,Arial_MSFontService,sans-serif" font-weight="700" font-size="5" transform="matrix(4.11818 0 0 4.1274 570.591 597)">from Noun Project</text></g></svg>